<svg width="20" height="15" viewBox="0 0 20 15" fill="none" xmlns="http://www.w3.org/2000/svg">
<path d="M19.7338 6.61889L13.3701 0.255195C13.1987 0.0895956 12.969 -0.00203694 12.7307 3.43662e-05C12.4923 0.00210568 12.2643 0.097715 12.0957 0.266269C11.9272 0.434824 11.8316 0.662837 11.8295 0.9012C11.8274 1.13956 11.9191 1.3692 12.0847 1.54066L16.8965 6.35253H0.9091C0.667992 6.35253 0.436758 6.44831 0.266269 6.6188C0.0957798 6.78929 0 7.02052 0 7.26163C0 7.50274 0.0957798 7.73397 0.266269 7.90446C0.436758 8.07495 0.667992 8.17073 0.9091 8.17073H16.8965L12.0847 12.9826C11.9978 13.0665 11.9286 13.1668 11.8809 13.2777C11.8333 13.3886 11.8082 13.5079 11.8072 13.6286C11.8061 13.7493 11.8291 13.869 11.8748 13.9807C11.9205 14.0925 11.988 14.194 12.0734 14.2793C12.1588 14.3647 12.2603 14.4322 12.372 14.4779C12.4837 14.5236 12.6034 14.5466 12.7241 14.5456C12.8448 14.5445 12.9641 14.5194 13.075 14.4718C13.186 14.4241 13.2863 14.3549 13.3701 14.2681L19.7338 7.90436C19.9043 7.73388 20 7.50269 20 7.26163C20 7.02057 19.9043 6.78938 19.7338 6.61889Z" fill="#45494E"/>
</svg>
