<svg width="20" height="15" viewBox="0 0 20 15" fill="none" xmlns="http://www.w3.org/2000/svg">
<path d="M0.266171 8.38111L6.62987 14.7448C6.80133 14.9104 7.03097 15.002 7.26933 15C7.50769 14.9979 7.73571 14.9023 7.90426 14.7337C8.07282 14.5652 8.16843 14.3372 8.1705 14.0988C8.17257 13.8604 8.08094 13.6308 7.91534 13.4593L3.10347 8.64747L19.0909 8.64747C19.332 8.64747 19.5632 8.55169 19.7337 8.3812C19.9042 8.21071 20 7.97948 20 7.73837C20 7.49726 19.9042 7.26603 19.7337 7.09554C19.5632 6.92505 19.332 6.82927 19.0909 6.82927L3.10347 6.82927L7.91534 2.01741C8.00216 1.93355 8.07142 1.83323 8.11907 1.72232C8.16671 1.6114 8.19179 1.49211 8.19284 1.3714C8.19389 1.25069 8.17089 1.13098 8.12518 1.01926C8.07947 0.907534 8.01196 0.80603 7.92661 0.720673C7.84125 0.635314 7.73974 0.56781 7.62802 0.522099C7.51629 0.476389 7.39659 0.453388 7.27588 0.454436C7.15517 0.455485 7.03587 0.480565 6.92496 0.528211C6.81405 0.575855 6.71373 0.645111 6.62987 0.731939L0.266171 7.09564C0.0957413 7.26612 0 7.49731 0 7.73837C0 7.97943 0.0957413 8.21062 0.266171 8.38111Z" fill="#45494E"/>
</svg>
