<svg width="45" height="45" viewBox="0 0 45 45" fill="none" xmlns="http://www.w3.org/2000/svg">
<g clip-path="url(#clip0_41_52)">
<path d="M22.5 45C34.9264 45 45 34.9264 45 22.5C45 10.0736 34.9264 0 22.5 0C10.0736 0 0 10.0736 0 22.5C0 34.9264 10.0736 45 22.5 45Z" fill="#ECEFF1"/>
<path d="M38.8717 35.6569C37.893 34.8834 36.7005 34.3266 35.4067 34.0566L29.2389 32.8191C28.592 32.6953 28.1251 32.1159 28.1251 31.4409V30.0262C28.5217 29.4694 28.8958 28.7297 29.2867 27.9562C29.5905 27.3572 30.0489 26.4544 30.2767 26.2209C31.5255 24.9666 32.732 23.5575 33.1061 21.7406C33.4548 20.0363 33.1117 19.1419 32.7095 18.4219C32.7095 16.6247 32.6533 14.3747 32.2286 12.7378C32.178 10.5216 31.7758 9.27563 30.7633 8.18438C30.0489 7.41094 28.997 7.23094 28.1505 7.0875C27.8186 7.03125 27.3601 6.9525 27.1914 6.8625C25.6923 6.0525 24.2101 5.65594 22.4411 5.625C18.737 5.77688 14.1836 8.13375 12.6592 12.3356C12.1867 13.6153 12.2345 15.7163 12.2739 17.4038L12.2373 18.4191C11.8745 19.1278 11.5173 20.0278 11.8689 21.7378C12.2401 23.5575 13.4467 24.9694 14.718 26.2406C14.9261 26.4544 15.3958 27.3656 15.7051 27.9675C16.1017 28.7381 16.4786 29.475 16.8751 30.0291V31.4438C16.8751 32.1159 16.4055 32.6953 15.7558 32.8219L9.58234 34.0594C8.29702 34.3322 7.10452 34.8834 6.12859 35.6569C5.82484 35.9016 5.63359 36.2587 5.60265 36.6469C5.57171 37.035 5.70109 37.4147 5.96265 37.7044C10.1645 42.3394 16.1917 45 22.5001 45C28.8086 45 34.8386 42.3422 39.0376 37.7044C39.2992 37.4147 39.4314 37.0322 39.3976 36.6441C39.3667 36.2559 39.1755 35.8988 38.8717 35.6569Z" fill="#455A64"/>
</g>
<defs>
<clipPath id="clip0_41_52">
<rect width="45" height="45" fill="white"/>
</clipPath>
</defs>
</svg>
