<svg width="50" height="60" viewBox="0 0 50 60" fill="none" xmlns="http://www.w3.org/2000/svg">
<rect x="20" width="10" height="60" fill="white"/>
<path d="M37.2593 39.1075C36.7654 39.4285 36.2652 39.4468 35.7585 39.1624C35.2528 38.8789 35 38.4409 35 37.8483V22.5149C35 21.9224 35.2528 21.4838 35.7585 21.1994C36.2652 20.9159 36.7654 20.9347 37.2593 21.2557L49.3333 28.9224C49.7778 29.2187 50 29.6384 50 30.1816C50 30.7248 49.7778 31.1446 49.3333 31.4409L37.2593 39.1075Z" fill="white"/>
<path d="M12.7407 21.2553C13.2346 20.9343 13.7348 20.916 14.2415 21.2004C14.7472 21.4839 15 21.9219 15 22.5145L15 37.8478C15 38.4404 14.7472 38.879 14.2415 39.1634C13.7348 39.4469 13.2346 39.4281 12.7407 39.1071L0.666668 31.4404C0.222224 31.1441 4.91738e-07 30.7244 4.91738e-07 30.1812C4.91738e-07 29.638 0.222224 29.2182 0.666668 28.9219L12.7407 21.2553Z" fill="white"/>
</svg>
