<svg width="30" height="30" viewBox="0 0 30 30" fill="none" xmlns="http://www.w3.org/2000/svg">
<g clip-path="url(#clip0_1_473)">
<path d="M22.0898 14.1797C17.728 14.1797 14.1797 17.728 14.1797 22.0898C14.1797 26.4516 17.728 30 22.0898 30C26.4516 30 30 26.4516 30 22.0898C30 17.728 26.4516 14.1797 22.0898 14.1797ZM25.6055 22.9688H22.0898C21.6042 22.9688 21.2109 22.5755 21.2109 22.0898V18.5742C21.2109 18.0885 21.6042 17.6953 22.0898 17.6953C22.5755 17.6953 22.9688 18.0885 22.9688 18.5742V21.2109H25.6055C26.0912 21.2109 26.4844 21.6042 26.4844 22.0898C26.4844 22.5755 26.0912 22.9688 25.6055 22.9688Z" fill="#409300"/>
<path d="M28.1836 2.69531C28.1836 2.20299 27.797 1.81641 27.3047 1.81641H22.9102V4.45312C22.9102 4.94522 22.5236 5.33203 22.0312 5.33203C21.5389 5.33203 21.1523 4.94522 21.1523 4.45312V1.81641H17.6367V4.45312C17.6367 4.94522 17.2501 5.33203 16.7578 5.33203C16.2655 5.33203 15.8789 4.94522 15.8789 4.45312V1.81641H12.3633V4.45312C12.3633 4.94522 11.9767 5.33203 11.4844 5.33203C10.9921 5.33203 10.6055 4.94522 10.6055 4.45312V1.81641H7.08984V4.45312C7.08984 4.94522 6.70326 5.33203 6.21094 5.33203C5.71861 5.33203 5.33203 4.94522 5.33203 4.45312V1.81641H0.878906C0.386581 1.81641 0 2.20299 0 2.69531V7.08984H28.1836V2.69531Z" fill="#409300"/>
<path d="M13.2422 17.6367H13.4532C13.7741 17.0132 14.1362 16.4147 14.5793 15.8789H13.2422C12.7565 15.8789 12.3633 15.4857 12.3633 15C12.3633 14.5143 12.7565 14.1211 13.2422 14.1211H15C15.36 14.1211 15.6674 14.3383 15.8034 14.648C17.4873 13.2255 19.6593 12.3633 22.0312 12.3633H20.2734C19.7878 12.3633 19.3945 11.9701 19.3945 11.4844C19.3945 10.9987 19.7878 10.6055 20.2734 10.6055H22.0312C22.5169 10.6055 22.9102 10.9987 22.9102 11.4844C22.9102 11.9701 22.5169 12.3633 22.0312 12.3633C24.3665 12.3633 26.5109 13.196 28.1836 14.5793V8.84766H0V25.5469C0 26.0326 0.393219 26.4258 0.878906 26.4258H13.4306C12.7533 25.1056 12.3633 23.6142 12.3633 22.0312C12.3633 21.0638 12.5368 20.1418 12.8025 19.2599C12.5446 19.1068 12.3633 18.8377 12.3633 18.5156C12.3633 18.0299 12.7565 17.6367 13.2422 17.6367ZM13.2422 10.6055H15C15.4857 10.6055 15.8789 10.9987 15.8789 11.4844C15.8789 11.9701 15.4857 12.3633 15 12.3633H13.2422C12.7565 12.3633 12.3633 11.9701 12.3633 11.4844C12.3633 10.9987 12.7565 10.6055 13.2422 10.6055ZM7.96875 22.9102H6.21094C5.72525 22.9102 5.33203 22.5169 5.33203 22.0312C5.33203 21.5456 5.72525 21.1523 6.21094 21.1523H7.96875C8.45444 21.1523 8.84766 21.5456 8.84766 22.0312C8.84766 22.5169 8.45444 22.9102 7.96875 22.9102ZM7.96875 19.3945H6.21094C5.72525 19.3945 5.33203 19.0013 5.33203 18.5156C5.33203 18.0299 5.72525 17.6367 6.21094 17.6367H7.96875C8.45444 17.6367 8.84766 18.0299 8.84766 18.5156C8.84766 19.0013 8.45444 19.3945 7.96875 19.3945ZM7.96875 15.8789H6.21094C5.72525 15.8789 5.33203 15.4857 5.33203 15C5.33203 14.5143 5.72525 14.1211 6.21094 14.1211H7.96875C8.45444 14.1211 8.84766 14.5143 8.84766 15C8.84766 15.4857 8.45444 15.8789 7.96875 15.8789ZM7.96875 12.3633H6.21094C5.72525 12.3633 5.33203 11.9701 5.33203 11.4844C5.33203 10.9987 5.72525 10.6055 6.21094 10.6055H7.96875C8.45444 10.6055 8.84766 10.9987 8.84766 11.4844C8.84766 11.9701 8.45444 12.3633 7.96875 12.3633Z" fill="#409300"/>
<path d="M7.08984 0.878906C7.08984 0.386581 6.70326 0 6.21094 0C5.71861 0 5.33203 0.386581 5.33203 0.878906V1.81641H7.08984V0.878906Z" fill="#409300"/>
<path d="M12.3633 0.878906C12.3633 0.386581 11.9767 0 11.4844 0C10.9921 0 10.6055 0.386581 10.6055 0.878906V1.81641H12.3633V0.878906Z" fill="#409300"/>
<path d="M17.6367 0.878906C17.6367 0.386581 17.2501 0 16.7578 0C16.2655 0 15.8789 0.386581 15.8789 0.878906V1.81641H17.6367V0.878906Z" fill="#409300"/>
<path d="M22.9102 0.878906C22.9102 0.386581 22.5236 0 22.0312 0C21.5389 0 21.1523 0.386581 21.1523 0.878906V1.81641H22.9102V0.878906Z" fill="#409300"/>
</g>
<defs>
<clipPath id="clip0_1_473">
<rect width="30" height="30" fill="white"/>
</clipPath>
</defs>
</svg>
