<svg width="50" height="50" viewBox="0 0 50 50" fill="none" xmlns="http://www.w3.org/2000/svg">
<g clip-path="url(#clip0_56_58)">
<path d="M25 50C38.8071 50 50 38.8071 50 25C50 11.1929 38.8071 0 25 0C11.1929 0 0 11.1929 0 25C0 38.8071 11.1929 50 25 50Z" fill="white" fill-opacity="0.15"/>
<path fill-rule="evenodd" clip-rule="evenodd" d="M19.5161 14.0327C19.1525 14.0327 18.8038 14.1772 18.5467 14.4342C18.2896 14.6914 18.1451 15.0401 18.1451 15.4037V16.7746H16.7742C16.047 16.7746 15.3495 17.0635 14.8353 17.5777C14.3211 18.0919 14.0322 18.7894 14.0322 19.5166V33.2263C14.0322 33.9536 14.3211 34.6509 14.8353 35.1651C15.3495 35.6794 16.047 35.9683 16.7742 35.9683H33.2258C33.953 35.9683 34.6504 35.6794 35.1647 35.1651C35.6788 34.6509 35.9677 33.9536 35.9677 33.2263V19.5166C35.9677 18.7894 35.6788 18.0919 35.1647 17.5777C34.6504 17.0635 33.953 16.7746 33.2258 16.7746H31.8548V15.4037C31.8548 15.0401 31.7104 14.6914 31.4532 14.4342C31.1961 14.1772 30.8475 14.0327 30.4838 14.0327C30.1203 14.0327 29.7715 14.1772 29.5145 14.4342C29.2574 14.6914 29.1129 15.0401 29.1129 15.4037V16.7746H20.887V15.4037C20.887 15.0401 20.7427 14.6914 20.4854 14.4342C20.2284 14.1772 19.8797 14.0327 19.5161 14.0327ZM19.5161 20.8876C19.1525 20.8876 18.8038 21.032 18.5467 21.289C18.2896 21.5461 18.1451 21.8949 18.1451 22.2586C18.1451 22.6221 18.2896 22.9709 18.5467 23.228C18.8038 23.485 19.1525 23.6296 19.5161 23.6296H30.4838C30.8475 23.6296 31.1961 23.485 31.4532 23.228C31.7104 22.9709 31.8548 22.6221 31.8548 22.2586C31.8548 21.8949 31.7104 21.5461 31.4532 21.289C31.1961 21.032 30.8475 20.8876 30.4838 20.8876H19.5161Z" fill="#F6F6F6"/>
</g>
<defs>
<clipPath id="clip0_56_58">
<rect width="50" height="50" fill="white"/>
</clipPath>
</defs>
</svg>
