<svg width="25" height="25" viewBox="0 0 25 25" fill="none" xmlns="http://www.w3.org/2000/svg">
<path d="M1.79309 23.2074C1.86566 23.2801 1.95182 23.3377 2.04666 23.3771C2.14149 23.4163 2.24316 23.4366 2.34583 23.4366C2.44849 23.4366 2.55016 23.4163 2.64501 23.3771C2.73984 23.3377 2.82601 23.2801 2.89857 23.2074L12.5002 13.6059L22.1056 23.2074C22.2522 23.3541 22.4511 23.4364 22.6583 23.4364C22.8657 23.4364 23.0644 23.3541 23.2111 23.2074C23.3577 23.0608 23.4401 22.8621 23.4401 22.6547C23.4401 22.4474 23.3577 22.2486 23.2111 22.1019L13.6056 12.5004L23.2072 2.89496C23.3538 2.74837 23.4361 2.54955 23.4361 2.34222C23.4361 2.13491 23.3538 1.93608 23.2072 1.7895C23.0606 1.6429 22.8617 1.56055 22.6544 1.56055C22.4471 1.56055 22.2483 1.6429 22.1017 1.7895L12.5002 11.395L2.89466 1.7934C2.74521 1.66541 2.55296 1.59853 2.35633 1.60612C2.15971 1.61372 1.97319 1.69523 1.83406 1.83437C1.69492 1.9735 1.61342 2.16002 1.60582 2.35663C1.59823 2.55326 1.66511 2.74551 1.79309 2.89496L11.3947 12.5004L1.79309 22.1059C1.64758 22.2523 1.56592 22.4503 1.56592 22.6567C1.56592 22.8631 1.64758 23.0611 1.79309 23.2074Z" fill="#45494E"/>
</svg>
