<svg width="42" height="42" viewBox="0 0 42 42" fill="none" xmlns="http://www.w3.org/2000/svg">
<path d="M21 1.3125C10.1325 1.3125 1.3125 10.1325 1.3125 21C1.3125 31.8675 10.1325 40.6875 21 40.6875C31.8675 40.6875 40.6875 31.8675 40.6875 21C40.6875 10.1325 31.8675 1.3125 21 1.3125ZM21 32.8125C19.5562 32.8125 18.375 31.6313 18.375 30.1875C18.375 28.7437 19.5562 27.5625 21 27.5625C22.4438 27.5625 23.625 28.7437 23.625 30.1875C23.625 31.6313 22.4438 32.8125 21 32.8125ZM24.0056 12.4556L23.1263 22.9819C23.0344 24.0844 22.1156 24.9375 21 24.9375C19.8844 24.9375 18.9656 24.0844 18.8738 22.9819L17.9944 12.4556C17.85 10.6969 19.2281 9.1875 21 9.1875C22.68 9.1875 24.0187 10.5525 24.0187 12.2063C24.0187 12.285 24.0188 12.3769 24.0056 12.4556Z" fill="#FF6174"/>
</svg>
