<svg width="50" height="50" viewBox="0 0 50 50" fill="none" xmlns="http://www.w3.org/2000/svg">
<g clip-path="url(#clip0_56_110)">
<path d="M25 50C38.8071 50 50 38.8071 50 25C50 11.1929 38.8071 0 25 0C11.1929 0 0 11.1929 0 25C0 38.8071 11.1929 50 25 50Z" fill="white" fill-opacity="0.15"/>
<path d="M28.2552 25.9131L26.4127 27.7619C25.6655 28.5117 24.3508 28.5278 23.5875 27.7619L21.7448 25.9131L15.127 32.5524C15.3733 32.6664 15.6449 32.7343 15.9336 32.7343H34.0665C34.3552 32.7343 34.6267 32.6664 34.873 32.5525L28.2552 25.9131Z" fill="white"/>
<path d="M34.0664 17.2656H15.9336C15.6448 17.2656 15.3732 17.3336 15.127 17.4475L22.1986 24.5426C22.1991 24.5431 22.1997 24.5432 22.2001 24.5437C22.2006 24.5441 22.2007 24.5448 22.2007 24.5448L24.5001 26.8518C24.7443 27.096 25.2557 27.096 25.5 26.8518L27.7989 24.5452C27.7989 24.5452 27.7994 24.5441 27.7999 24.5437C27.7999 24.5437 27.8009 24.5431 27.8014 24.5426L34.8729 17.4475C34.6266 17.3335 34.3551 17.2656 34.0664 17.2656Z" fill="white"/>
<path d="M14.2056 18.3491C14.0782 18.6068 14 18.8929 14 19.1994V30.8009C14 31.1074 14.0781 31.3935 14.2056 31.6512L20.835 25.0004L14.2056 18.3491Z" fill="white"/>
<path d="M35.7943 18.3486L29.165 25L35.7943 31.6509C35.9217 31.3932 35.9999 31.1071 35.9999 30.8005V19.199C35.9999 18.8924 35.9217 18.6064 35.7943 18.3486Z" fill="white"/>
</g>
<defs>
<clipPath id="clip0_56_110">
<rect width="50" height="50" fill="white"/>
</clipPath>
</defs>
</svg>
