<svg width="35" height="24" viewBox="0 0 35 24" fill="none" xmlns="http://www.w3.org/2000/svg">
<path d="M17.5 0C9.54545 0 2.75227 4.94773 0 11.9318C2.75227 18.9159 9.54545 23.8636 17.5 23.8636C25.4545 23.8636 32.2477 18.9159 35 11.9318C32.2477 4.94773 25.4545 0 17.5 0ZM17.5 19.8864C13.1091 19.8864 9.54545 16.3227 9.54545 11.9318C9.54545 7.54091 13.1091 3.97727 17.5 3.97727C21.8909 3.97727 25.4545 7.54091 25.4545 11.9318C25.4545 16.3227 21.8909 19.8864 17.5 19.8864ZM17.5 7.15909C14.8591 7.15909 12.7273 9.29091 12.7273 11.9318C12.7273 14.5727 14.8591 16.7045 17.5 16.7045C20.1409 16.7045 22.2727 14.5727 22.2727 11.9318C22.2727 9.29091 20.1409 7.15909 17.5 7.15909Z" fill="#409300"/>
</svg>
