<svg width="109" height="109" viewBox="0 0 109 109" fill="none" xmlns="http://www.w3.org/2000/svg">
<path d="M94.1266 38.7633H70.7393V14.3456C70.7393 10.8202 69.3615 7.50077 66.863 5.00229C64.3628 2.5038 61.0451 1.12598 57.5197 1.12598H14.8581C7.56871 1.12598 1.63843 7.05626 1.63843 14.3456V42.7861C1.63843 50.0755 7.56871 56.0058 14.8581 56.0058H15.8578V64.1161C15.8578 66.6265 17.3515 68.8524 19.6643 69.7892C20.4086 70.0906 21.1835 70.2354 21.9516 70.2354C23.5508 70.2354 25.1109 69.6001 26.2571 68.4182L38.2471 56.4929V80.4218C38.2471 87.7094 44.1842 93.6397 51.4804 93.6397H70.2505L82.7038 106.027C83.8755 107.232 85.4424 107.874 87.0501 107.874C87.8183 107.874 88.5932 107.728 89.3391 107.425C91.6486 106.49 93.1405 104.267 93.1405 101.762V93.638H94.1266C101.425 93.638 107.362 87.7094 107.362 80.4201V51.9779C107.362 44.6936 101.425 38.7633 94.1266 38.7633ZM37.6817 50.8964C37.0072 50.8964 36.3583 51.1638 35.8798 51.6407L22.6209 64.828C22.2309 65.2299 21.8051 65.143 21.582 65.0528C21.3521 64.9591 20.9672 64.7156 20.9672 64.1161V53.4511C20.9672 52.0392 19.8244 50.8964 18.4125 50.8964H14.8581C10.3857 50.8964 6.7478 47.2585 6.7478 42.7861V14.3456C6.7478 9.87323 10.3857 6.23535 14.8581 6.23535H57.518C59.6809 6.23535 61.7145 7.0801 63.249 8.61462C64.7835 10.1474 65.6282 12.1827 65.6282 14.3439V42.7844C65.6282 47.2568 61.9887 50.8947 57.5163 50.8947H37.6817V50.8964ZM102.252 80.4218C102.252 84.8925 98.6075 88.5303 94.1266 88.5303H90.5858C89.1756 88.5303 88.0311 89.6749 88.0311 91.085V101.764C88.0311 102.356 87.6462 102.6 87.4197 102.692C87.1932 102.782 86.764 102.874 86.3399 102.44L73.1067 89.2763C72.6281 88.8011 71.9809 88.5321 71.3048 88.5321H51.4804C47.0012 88.5321 43.3565 84.8942 43.3565 80.4235V56.0058H57.5163C64.4395 56.0058 70.1245 50.6563 70.6814 43.8744H94.1249C98.6058 43.8744 102.251 47.5106 102.251 51.9813V80.4218H102.252Z" fill="#828282"/>
<path d="M56.9883 62.4487C54.9104 62.4487 53.2192 64.1416 53.2192 66.2177C53.2192 68.2939 54.9121 69.9868 56.9883 69.9868C59.0678 69.9868 60.7607 68.2939 60.7607 66.2177C60.7607 64.1416 59.0695 62.4487 56.9883 62.4487Z" fill="#828282"/>
<path d="M72.8034 62.4487C70.7256 62.4487 69.0344 64.1416 69.0344 66.2177C69.0344 68.2939 70.7273 69.9868 72.8034 69.9868C74.883 69.9868 76.5759 68.2939 76.5759 66.2177C76.5759 64.1416 74.883 62.4487 72.8034 62.4487Z" fill="#828282"/>
<path d="M88.6186 62.4487C86.5408 62.4487 84.8496 64.1416 84.8496 66.2177C84.8496 68.2939 86.5425 69.9868 88.6186 69.9868C90.6981 69.9868 92.391 68.2939 92.391 66.2177C92.391 64.1416 90.6981 62.4487 88.6186 62.4487Z" fill="#828282"/>
<path d="M35.3448 37.1743C33.8699 37.1743 32.6743 38.404 32.6743 39.8806C32.6743 41.3214 33.8341 42.5868 35.3448 42.5868C36.8555 42.5868 38.0511 41.3214 38.0511 39.8806C38.0511 38.404 36.8214 37.1743 35.3448 37.1743Z" fill="#828282"/>
<path d="M35.866 14.5449C30.4296 14.5449 27.9312 17.7672 27.9312 19.9421C27.9312 21.5124 29.2596 22.2379 30.3479 22.2379C32.5228 22.2379 31.6372 19.1365 35.7451 19.1365C37.7582 19.1365 39.3693 20.0222 39.3693 21.8752C39.3693 24.0501 37.1144 25.2985 35.786 26.4259C34.6176 27.4325 33.0865 29.0845 33.0865 32.5487C33.0865 34.6435 33.6502 35.2464 35.3023 35.2464C37.2762 35.2464 37.6781 34.3608 37.6781 33.5944C37.6781 31.4995 37.719 30.292 39.9331 28.5599C41.0197 27.7135 44.4429 24.9749 44.4429 21.1888C44.4447 17.4045 41.0214 14.5449 35.866 14.5449Z" fill="#828282"/>
</svg>
