<svg width="100" height="100" viewBox="0 0 100 100" fill="none" xmlns="http://www.w3.org/2000/svg">
<g clip-path="url(#clip0_29_432)">
<g filter="url(#filter0_d_29_432)">
<path d="M90.5455 69.9908L39.1064 93.9773C38.3756 94.3181 37.5393 94.3546 36.7815 94.0788C36.0238 93.803 35.4066 93.2375 35.0658 92.5066L18.3609 56.683C18.2473 56.4393 18.2352 56.1606 18.3271 55.908C18.419 55.6554 18.6076 55.4497 18.8512 55.3361C19.0948 55.2225 19.3736 55.2103 19.6261 55.3022C19.8787 55.3942 20.0845 55.5827 20.1981 55.8263L36.9029 91.65C37.0165 91.8936 37.2222 92.0821 37.4748 92.174C37.7274 92.2659 38.0062 92.2538 38.2498 92.1402L89.6889 68.1537C89.9325 68.0401 90.121 67.8344 90.2129 67.5818C90.3049 67.3292 90.2927 67.0505 90.1791 66.8068L73.4743 30.9832C73.3607 30.7396 73.3485 30.4608 73.4404 30.2082C73.5324 29.9556 73.7209 29.7499 73.9645 29.6363C74.2081 29.5227 74.4869 29.5105 74.7395 29.6025C74.992 29.6944 75.1978 29.8829 75.3114 30.1265L92.0162 65.9502C92.357 66.681 92.3935 67.5173 92.1177 68.2751C91.8419 69.0329 91.2764 69.65 90.5455 69.9908Z" fill="white"/>
</g>
<g filter="url(#filter1_d_29_432)">
<path d="M77.577 30.1885L61.3278 37.7656C61.0842 37.8792 60.8054 37.8914 60.5528 37.7994C60.3002 37.7075 60.0945 37.519 59.9809 37.2754C59.8673 37.0318 59.8551 36.753 59.9471 36.5004C60.039 36.2478 60.2275 36.0421 60.4711 35.9285L76.7204 28.3513L72.4371 19.1658L11.8124 47.4355L16.0957 56.6211L32.345 49.0439C32.5886 48.9303 32.8673 48.9182 33.1199 49.0101C33.3725 49.102 33.5782 49.2905 33.6918 49.5342C33.8054 49.7778 33.8176 50.0565 33.7257 50.3091C33.6337 50.5617 33.4452 50.7674 33.2016 50.881L16.9524 58.4582C16.4651 58.6854 15.9076 58.7097 15.4024 58.5259C14.8973 58.342 14.4858 57.965 14.2586 57.4777L9.97531 48.2922C9.74811 47.805 9.72377 47.2474 9.90764 46.7422C10.0915 46.2371 10.4685 45.8256 10.9558 45.5984L71.5804 17.3287C72.0676 17.1015 72.6252 17.0771 73.1304 17.261C73.6355 17.4449 74.047 17.8219 74.2742 18.3091L78.5575 27.4947C78.7847 27.9819 78.809 28.5395 78.6251 29.0446C78.4413 29.5498 78.0642 29.9613 77.577 30.1885Z" fill="white"/>
</g>
<g filter="url(#filter2_d_29_432)">
<path d="M42.1245 33.3006C41.9624 33.376 41.7833 33.4072 41.6053 33.3911C41.4273 33.375 41.2567 33.312 41.1109 33.2087C40.9651 33.1054 40.8491 32.9653 40.7749 32.8027C40.7007 32.6401 40.6707 32.4608 40.6882 32.2829C41.1126 27.9339 42.3153 17.503 44.3024 14.5769C44.9005 13.6408 45.6803 12.834 46.5956 12.2044C47.5109 11.5748 48.5431 11.1351 49.6312 10.9112C50.7194 10.6874 51.8414 10.684 52.9309 10.9012C54.0203 11.1184 55.0552 11.5519 55.9743 12.176C56.8934 12.8 57.678 13.602 58.2818 14.5345C58.8857 15.467 59.2964 16.5112 59.4897 17.6051C59.6831 18.6991 59.6551 19.8208 59.4076 20.9037C59.16 21.9867 58.6978 23.0091 58.0483 23.9104C57.2385 25.1044 55.2146 26.7068 52.029 28.6742C51.9158 28.7472 51.7891 28.7969 51.6564 28.8204C51.5237 28.8439 51.3876 28.8406 51.2562 28.8109C51.1248 28.7811 51.0006 28.7255 50.8909 28.6472C50.7812 28.5689 50.6883 28.4695 50.6175 28.3548C50.5467 28.2401 50.4995 28.1125 50.4786 27.9794C50.4577 27.8463 50.4636 27.7103 50.4959 27.5795C50.5282 27.4486 50.5863 27.3256 50.6667 27.2174C50.7471 27.1093 50.8483 27.0183 50.9643 26.9498C54.8182 24.5689 56.0056 23.3118 56.3708 22.7736C56.838 22.0884 57.1645 21.3172 57.3312 20.5047C57.498 19.6923 57.5017 18.8549 57.3421 18.041C57.1064 16.8223 56.5147 15.7008 55.6417 14.8183C54.7687 13.9358 53.6537 13.3319 52.4376 13.0829C51.2215 12.834 49.9589 12.9512 48.8093 13.4197C47.6598 13.8882 46.675 14.687 45.9794 15.7151C44.5701 17.7913 43.3645 25.7364 42.7055 32.4795C42.6885 32.6551 42.626 32.8232 42.5241 32.9672C42.4222 33.1112 42.2844 33.2262 42.1245 33.3006Z" fill="white"/>
</g>
<g filter="url(#filter3_d_29_432)">
<path d="M42.1248 33.3005C41.9651 33.3753 41.7886 33.407 41.6129 33.3927C41.4372 33.3783 41.2682 33.3184 41.1227 33.2187C35.5342 29.3879 28.672 25.2048 26.177 24.9503C25.3414 24.8362 24.4914 24.8915 23.6776 25.1129C22.8639 25.3343 22.103 25.7172 21.4403 26.2388C20.7777 26.7604 20.2268 27.4101 19.8205 28.1492C19.4143 28.8882 19.1609 29.7015 19.0756 30.5405C18.9902 31.3795 19.0747 32.2271 19.3238 33.0328C19.573 33.8385 19.9818 34.5858 20.5258 35.2301C21.0699 35.8745 21.7381 36.4028 22.4906 36.7835C23.2431 37.1641 24.0646 37.3895 24.9061 37.446C25.5522 37.5126 27.2784 37.411 31.5804 35.9887C31.7075 35.9439 31.8422 35.9249 31.9768 35.9328C32.1113 35.9407 32.2429 35.9753 32.3639 36.0347C32.4848 36.094 32.5928 36.1769 32.6813 36.2785C32.7699 36.38 32.8373 36.4982 32.8796 36.6262C32.922 36.7541 32.9384 36.8892 32.9279 37.0236C32.9174 37.1579 32.8802 37.2888 32.8185 37.4086C32.7568 37.5284 32.6718 37.6347 32.5685 37.7213C32.4653 37.8078 32.3458 37.8729 32.217 37.9128C28.6641 39.0876 26.1338 39.6088 24.6986 39.4617C23.5907 39.3799 22.5104 39.0768 21.5217 38.5703C20.5329 38.0638 19.6557 37.3643 18.942 36.5129C18.2282 35.6616 17.6924 34.6759 17.3662 33.6139C17.0399 32.5519 16.9299 31.4354 17.0426 30.3302C17.1554 29.225 17.4885 28.1536 18.0224 27.1794C18.5563 26.2051 19.2801 25.3478 20.151 24.6581C21.022 23.9684 22.0223 23.4604 23.093 23.1639C24.1636 22.8675 25.2828 22.7887 26.3845 22.9323C29.906 23.2897 38.665 29.0753 42.2703 31.5452C42.4179 31.6463 42.5361 31.7847 42.6129 31.9462C42.6898 32.1078 42.7224 32.2868 42.7077 32.4651C42.6929 32.6434 42.6312 32.8147 42.5288 32.9614C42.4264 33.1081 42.2871 33.2251 42.1248 33.3005Z" fill="white"/>
</g>
<g filter="url(#filter4_d_29_432)">
<path d="M69.4187 79.8424L60.2332 84.1257C59.9896 84.2393 59.7108 84.2514 59.4582 84.1595C59.2056 84.0676 58.9999 83.8791 58.8863 83.6354L40.9479 45.1664C40.8343 44.9227 40.8221 44.644 40.914 44.3914C41.006 44.1388 41.1945 43.9331 41.4381 43.8195C41.6817 43.7059 41.9605 43.6937 42.2131 43.7856C42.4656 43.8776 42.6714 44.0661 42.785 44.3097L60.2951 81.8602L67.6435 78.4336L50.1334 40.8831C50.0198 40.6394 50.0076 40.3607 50.0996 40.1081C50.1915 39.8555 50.38 39.6498 50.6236 39.5362C50.8673 39.4226 51.146 39.4104 51.3986 39.5023C51.6512 39.5943 51.8569 39.7828 51.9705 40.0264L69.909 78.4955C70.0226 78.7391 70.0347 79.0179 69.9428 79.2705C69.8509 79.5231 69.6623 79.7288 69.4187 79.8424Z" fill="white"/>
</g>
<g filter="url(#filter5_d_29_432)">
<path d="M51.374 41.2887L42.2987 45.5206C42.055 45.6342 41.7763 45.6464 41.5237 45.5544C41.2711 45.4625 41.0654 45.274 40.9518 45.0304C40.8382 44.7868 40.826 44.508 40.9179 44.2554C41.0099 44.0028 41.1984 43.7971 41.442 43.6835L50.5173 39.4516C50.7609 39.338 51.0397 39.3258 51.2923 39.4178C51.5449 39.5097 51.7506 39.6982 51.8642 39.9418C51.9778 40.1854 51.99 40.4642 51.898 40.7168C51.8061 40.9694 51.6176 41.1751 51.374 41.2887Z" fill="white"/>
</g>
<g filter="url(#filter6_d_29_432)">
<path d="M60.2634 48.9559C60.0864 49.0384 59.8893 49.0681 59.6959 49.0412C59.5024 49.0144 59.3208 48.9322 59.173 48.8046L41.0343 33.1492C40.8346 32.9725 40.7126 32.7242 40.6947 32.4582C40.6768 32.1922 40.7645 31.9299 40.9387 31.728C41.1128 31.5262 41.3595 31.4011 41.6253 31.3799C41.8911 31.3587 42.1545 31.443 42.3585 31.6147L58.4776 45.5268L57.9004 41.1954C57.8814 41.0533 57.8928 40.9088 57.9337 40.7715C57.9747 40.6341 58.0443 40.507 58.138 40.3986C58.2316 40.2901 58.3473 40.2027 58.4772 40.1422C58.6071 40.0817 58.7484 40.0495 58.8917 40.0476L63.0828 39.9943L49.9498 29.0086C49.8477 28.9231 49.7634 28.8184 49.7017 28.7004C49.6401 28.5824 49.6023 28.4534 49.5905 28.3208C49.5787 28.1882 49.5932 28.0545 49.633 27.9275C49.6729 27.8005 49.7374 27.6825 49.8228 27.5804C49.9083 27.4783 50.013 27.3941 50.131 27.3324C50.249 27.2708 50.378 27.233 50.5106 27.2212C50.6432 27.2094 50.7769 27.2239 50.9039 27.2637C51.0309 27.3036 51.1489 27.3681 51.251 27.4535L66.4812 40.1933C66.6397 40.3262 66.7537 40.5044 66.8079 40.7039C66.8622 40.9035 66.8541 41.1148 66.7848 41.3096C66.7155 41.5045 66.5882 41.6734 66.4201 41.7938C66.2519 41.9142 66.051 41.9803 65.8442 41.9833L60.0638 42.0575L60.8427 47.9007C60.8701 48.1046 60.8348 48.312 60.7415 48.4953C60.6482 48.6786 60.5013 48.8292 60.3204 48.9271L60.2634 48.9559Z" fill="white"/>
</g>
<g filter="url(#filter7_d_29_432)">
<path d="M42.4582 57.2588L42.4031 57.2845C42.2118 57.3602 42.002 57.3759 41.8016 57.3295C41.6012 57.2831 41.4197 57.1769 41.2811 57.0248L37.3056 52.6722L33.5331 57.0526C33.398 57.2091 33.2182 57.3205 33.0179 57.3719C32.8176 57.4233 32.6064 57.4122 32.4125 57.3401C32.2187 57.268 32.0516 57.1383 31.9336 56.9685C31.8157 56.7986 31.7524 56.5968 31.7525 56.39L31.7781 36.5329C31.7785 36.264 31.8857 36.0063 32.0761 35.8164C32.2664 35.6265 32.5245 35.5201 32.7933 35.5205C33.0622 35.5208 33.3199 35.628 33.5098 35.8184C33.6997 36.0088 33.8061 36.2668 33.8058 36.5357L33.7796 53.6577L36.5144 50.4814C36.6079 50.3728 36.7235 50.2853 36.8533 50.2246C36.9832 50.164 37.1244 50.1316 37.2677 50.1296C37.411 50.1275 37.5531 50.1559 37.6847 50.2128C37.8162 50.2697 37.9342 50.3539 38.0308 50.4598L40.9779 53.6861L40.6831 32.3961C40.6827 32.1295 40.7874 31.8735 40.9745 31.6835C41.1616 31.4936 41.416 31.385 41.6826 31.3813C41.9491 31.3776 42.2064 31.4791 42.3987 31.6638C42.591 31.8485 42.7027 32.1015 42.7097 32.368L43.0432 56.3262C43.0459 56.5215 42.9921 56.7134 42.8883 56.8788C42.7845 57.0443 42.6352 57.1762 42.4582 57.2588Z" fill="white"/>
</g>
</g>
<defs>
<filter id="filter0_d_29_432" x="-1.73389" y="9.54126" width="114.035" height="104.721" filterUnits="userSpaceOnUse" color-interpolation-filters="sRGB">
<feFlood flood-opacity="0" result="BackgroundImageFix"/>
<feColorMatrix in="SourceAlpha" type="matrix" values="0 0 0 0 0 0 0 0 0 0 0 0 0 0 0 0 0 0 127 0" result="hardAlpha"/>
<feOffset/>
<feGaussianBlur stdDeviation="10"/>
<feComposite in2="hardAlpha" operator="out"/>
<feColorMatrix type="matrix" values="0 0 0 0 1 0 0 0 0 1 0 0 0 0 1 0 0 0 0.25 0"/>
<feBlend mode="normal" in2="BackgroundImageFix" result="effect1_dropShadow_29_432"/>
<feBlend mode="normal" in="SourceGraphic" in2="effect1_dropShadow_29_432" result="shape"/>
</filter>
<filter id="filter1_d_29_432" x="-10.2148" y="-2.86133" width="108.962" height="81.5095" filterUnits="userSpaceOnUse" color-interpolation-filters="sRGB">
<feFlood flood-opacity="0" result="BackgroundImageFix"/>
<feColorMatrix in="SourceAlpha" type="matrix" values="0 0 0 0 0 0 0 0 0 0 0 0 0 0 0 0 0 0 127 0" result="hardAlpha"/>
<feOffset/>
<feGaussianBlur stdDeviation="10"/>
<feComposite in2="hardAlpha" operator="out"/>
<feColorMatrix type="matrix" values="0 0 0 0 1 0 0 0 0 1 0 0 0 0 1 0 0 0 0.25 0"/>
<feBlend mode="normal" in2="BackgroundImageFix" result="effect1_dropShadow_29_432"/>
<feBlend mode="normal" in="SourceGraphic" in2="effect1_dropShadow_29_432" result="shape"/>
</filter>
<filter id="filter2_d_29_432" x="20.6831" y="-9.25928" width="58.9333" height="62.6545" filterUnits="userSpaceOnUse" color-interpolation-filters="sRGB">
<feFlood flood-opacity="0" result="BackgroundImageFix"/>
<feColorMatrix in="SourceAlpha" type="matrix" values="0 0 0 0 0 0 0 0 0 0 0 0 0 0 0 0 0 0 127 0" result="hardAlpha"/>
<feOffset/>
<feGaussianBlur stdDeviation="10"/>
<feComposite in2="hardAlpha" operator="out"/>
<feColorMatrix type="matrix" values="0 0 0 0 1 0 0 0 0 1 0 0 0 0 1 0 0 0 0.25 0"/>
<feBlend mode="normal" in2="BackgroundImageFix" result="effect1_dropShadow_29_432"/>
<feBlend mode="normal" in="SourceGraphic" in2="effect1_dropShadow_29_432" result="shape"/>
</filter>
<filter id="filter3_d_29_432" x="-3.00049" y="2.86255" width="65.7114" height="56.6235" filterUnits="userSpaceOnUse" color-interpolation-filters="sRGB">
<feFlood flood-opacity="0" result="BackgroundImageFix"/>
<feColorMatrix in="SourceAlpha" type="matrix" values="0 0 0 0 0 0 0 0 0 0 0 0 0 0 0 0 0 0 127 0" result="hardAlpha"/>
<feOffset/>
<feGaussianBlur stdDeviation="10"/>
<feComposite in2="hardAlpha" operator="out"/>
<feColorMatrix type="matrix" values="0 0 0 0 1 0 0 0 0 1 0 0 0 0 1 0 0 0 0.25 0"/>
<feBlend mode="normal" in2="BackgroundImageFix" result="effect1_dropShadow_29_432"/>
<feBlend mode="normal" in="SourceGraphic" in2="effect1_dropShadow_29_432" result="shape"/>
</filter>
<filter id="filter4_d_29_432" x="20.853" y="19.4412" width="69.1509" height="84.7795" filterUnits="userSpaceOnUse" color-interpolation-filters="sRGB">
<feFlood flood-opacity="0" result="BackgroundImageFix"/>
<feColorMatrix in="SourceAlpha" type="matrix" values="0 0 0 0 0 0 0 0 0 0 0 0 0 0 0 0 0 0 127 0" result="hardAlpha"/>
<feOffset/>
<feGaussianBlur stdDeviation="10"/>
<feComposite in2="hardAlpha" operator="out"/>
<feColorMatrix type="matrix" values="0 0 0 0 1 0 0 0 0 1 0 0 0 0 1 0 0 0 0.25 0"/>
<feBlend mode="normal" in2="BackgroundImageFix" result="effect1_dropShadow_29_432"/>
<feBlend mode="normal" in="SourceGraphic" in2="effect1_dropShadow_29_432" result="shape"/>
</filter>
<filter id="filter5_d_29_432" x="20.8569" y="19.3567" width="51.1023" height="46.2588" filterUnits="userSpaceOnUse" color-interpolation-filters="sRGB">
<feFlood flood-opacity="0" result="BackgroundImageFix"/>
<feColorMatrix in="SourceAlpha" type="matrix" values="0 0 0 0 0 0 0 0 0 0 0 0 0 0 0 0 0 0 127 0" result="hardAlpha"/>
<feOffset/>
<feGaussianBlur stdDeviation="10"/>
<feComposite in2="hardAlpha" operator="out"/>
<feColorMatrix type="matrix" values="0 0 0 0 1 0 0 0 0 1 0 0 0 0 1 0 0 0 0.25 0"/>
<feBlend mode="normal" in2="BackgroundImageFix" result="effect1_dropShadow_29_432"/>
<feBlend mode="normal" in="SourceGraphic" in2="effect1_dropShadow_29_432" result="shape"/>
</filter>
<filter id="filter6_d_29_432" x="20.6924" y="7.21729" width="66.1511" height="61.8335" filterUnits="userSpaceOnUse" color-interpolation-filters="sRGB">
<feFlood flood-opacity="0" result="BackgroundImageFix"/>
<feColorMatrix in="SourceAlpha" type="matrix" values="0 0 0 0 0 0 0 0 0 0 0 0 0 0 0 0 0 0 127 0" result="hardAlpha"/>
<feOffset/>
<feGaussianBlur stdDeviation="10"/>
<feComposite in2="hardAlpha" operator="out"/>
<feColorMatrix type="matrix" values="0 0 0 0 1 0 0 0 0 1 0 0 0 0 1 0 0 0 0.25 0"/>
<feBlend mode="normal" in2="BackgroundImageFix" result="effect1_dropShadow_29_432"/>
<feBlend mode="normal" in="SourceGraphic" in2="effect1_dropShadow_29_432" result="shape"/>
</filter>
<filter id="filter7_d_29_432" x="11.7524" y="11.3811" width="51.291" height="66.0227" filterUnits="userSpaceOnUse" color-interpolation-filters="sRGB">
<feFlood flood-opacity="0" result="BackgroundImageFix"/>
<feColorMatrix in="SourceAlpha" type="matrix" values="0 0 0 0 0 0 0 0 0 0 0 0 0 0 0 0 0 0 127 0" result="hardAlpha"/>
<feOffset/>
<feGaussianBlur stdDeviation="10"/>
<feComposite in2="hardAlpha" operator="out"/>
<feColorMatrix type="matrix" values="0 0 0 0 1 0 0 0 0 1 0 0 0 0 1 0 0 0 0.25 0"/>
<feBlend mode="normal" in2="BackgroundImageFix" result="effect1_dropShadow_29_432"/>
<feBlend mode="normal" in="SourceGraphic" in2="effect1_dropShadow_29_432" result="shape"/>
</filter>
<clipPath id="clip0_29_432">
<rect width="75" height="75" fill="white" transform="translate(0 31.6963) rotate(-25)"/>
</clipPath>
</defs>
</svg>
