<svg width="250" height="80" viewBox="0 0 250 80" fill="none" xmlns="http://www.w3.org/2000/svg">
<path fill-rule="evenodd" clip-rule="evenodd" d="M49.3952 20.5683C50.8231 21.6861 51.8935 22.7263 52.6367 23.6799C53.8531 25.2397 53.9287 26.5769 53.3093 27.3876C52.4101 28.5617 50.0467 28.6312 47.5706 26.6696C42.2839 22.4836 35.8504 16.9331 30.2999 17.1506C28.5659 17.2181 26.561 17.6491 25.1644 18.7356C24.1131 19.5533 23.2844 20.5522 22.6983 21.7485C18.2394 30.8415 28.2568 46.9793 36.1303 51.5953C40.1391 53.9456 37.5753 59.4467 33.0752 56.8073C21.0791 49.7746 7.54127 24.7856 21.4547 13.9666C23.8845 12.0775 27.0263 11.2316 30.0643 11.1128C36.5543 10.859 39.981 12.9435 44.5708 16.8777C46.765 13.3443 49.4718 9.86316 52.3044 7.05166C60.8516 -1.43311 73.6604 -3.86902 79.6387 8.86824C81.116 12.0161 82.3163 15.8516 82.8097 19.2864C84.5195 31.198 79.8683 50.2388 71.4077 58.9683C67.7756 62.7153 63.8373 58.0983 67.0697 54.7632C74.2031 47.4032 78.2703 30.1839 76.8283 20.1444C76.4205 17.3017 75.3924 14.0431 74.1689 11.436C70.0866 2.7368 62.0388 5.90168 56.5599 11.3394C53.9276 13.9525 51.3921 17.2654 49.3952 20.5683Z" fill="#409300"/>
<path fill-rule="evenodd" clip-rule="evenodd" d="M212.629 49.5008C212.524 50.4202 212.014 50.8753 211.099 50.8753C209.934 50.8753 209.352 50.0375 209.352 48.3539C209.352 45.6371 209.497 43.3119 209.789 41.3826C210.021 39.8811 210.14 38.407 210.14 36.9599C210.14 36.6095 210.248 36.3174 210.472 36.0859C210.694 35.8492 211.004 35.7304 211.404 35.7304C212.738 35.7304 213.402 36.541 213.402 38.1562C213.402 38.6798 213.17 40.0171 212.696 42.17C212.414 43.4489 212.269 44.3773 212.269 44.9553C214.813 39.3756 217.106 36.5863 219.149 36.5863C219.978 36.5863 220.641 36.9136 221.143 37.5692C221.643 38.2287 221.907 39.6858 221.92 41.9424C221.929 44.0037 222.039 45.0369 222.243 45.0369C222.403 45.0369 222.958 44.0359 223.909 42.0381C224.965 39.8217 225.871 38.3606 226.621 37.6517C227.372 36.9418 228.163 36.5863 228.987 36.5863C229.975 36.5863 230.689 37.0093 231.135 37.8561C231.577 38.707 231.89 40.1399 232.068 42.1559C232.2 43.758 232.383 44.9643 232.609 45.783C232.833 46.6018 233.225 47.1435 233.774 47.4073C234.22 47.6218 234.439 47.944 234.439 48.368C234.439 48.7496 234.189 49.1362 233.679 49.524C233.174 49.9106 232.66 50.1009 232.136 50.1009C231.227 50.1009 230.521 49.6559 230.007 48.7637C229.497 47.8715 229.151 46.0741 228.974 43.3844C228.878 42.0885 228.774 41.2275 228.66 40.8045C228.551 40.3816 228.382 40.1721 228.163 40.1721C227.968 40.1721 227.681 40.4863 227.309 41.1238C226.935 41.7602 226.289 43.0249 225.374 44.918C224.569 46.6249 223.873 47.8121 223.291 48.4908C222.708 49.1645 222.084 49.5008 221.416 49.5008C220.901 49.5008 220.383 49.2823 219.864 48.8362C219.345 48.3901 219.062 46.78 219.017 43.9946C218.972 41.5195 218.813 40.2769 218.535 40.2769C218.162 40.2769 217.265 41.3785 215.845 43.5848C214.421 45.7871 213.352 47.7628 212.629 49.5008ZM199.245 51.0757C197.78 51.0757 196.665 50.6749 195.901 49.8744C195.137 49.0779 194.754 47.9672 194.754 46.5433C194.754 44.3038 195.664 41.883 197.489 39.276C199.309 36.6729 201.097 35.3709 202.845 35.3709C203.691 35.3709 204.41 35.7898 205.006 36.6317C205.602 37.4695 205.898 38.3425 205.898 39.2487C205.898 40.1037 205.743 40.6777 205.425 40.9777C205.111 41.2738 204.806 41.4239 204.515 41.4239C203.651 41.4239 203.15 40.8277 203.008 39.6355C202.899 38.7664 202.681 38.3294 202.354 38.3294C201.662 38.3294 200.743 39.3162 199.605 41.2919C198.467 43.2616 197.899 44.9916 197.899 46.4749C197.899 47.6762 198.549 48.2763 199.846 48.2763C201.279 48.2763 202.722 47.7719 204.178 46.7568C204.865 46.2654 205.407 46.0237 205.808 46.0237C206.294 46.0237 206.54 46.2654 206.54 46.7568C206.54 47.4396 205.757 48.3317 204.187 49.4283C202.617 50.5289 200.97 51.0757 199.245 51.0757ZM188.105 45.4648C187.25 47.0166 186.262 48.2541 185.138 49.1685C184.015 50.0829 182.873 50.543 181.717 50.543C181.034 50.543 180.342 50.1835 179.646 49.4646C178.946 48.7405 178.599 47.6349 178.599 46.1426C178.599 45.0873 178.863 43.4891 179.396 41.3554C179.86 39.5992 180.092 38.2609 180.092 37.3466C180.447 36.5954 181.002 36.2228 181.757 36.2228C182.272 36.2228 182.685 36.395 182.991 36.7364C183.296 37.0777 183.451 37.4241 183.451 37.7695C183.451 38.4019 183.227 39.2981 182.786 40.4632C182.526 41.155 182.249 42.1378 181.953 43.4035C181.653 44.6683 181.502 45.483 181.502 45.8374C181.502 47.0206 181.748 47.6077 182.235 47.6077C183.009 47.6077 184.056 46.8656 185.371 45.3822C186.686 43.899 187.546 42.3795 187.942 40.8227C188.342 39.3032 188.697 38.3062 189.011 37.838C189.32 37.3647 189.761 37.1321 190.33 37.1321C191.255 37.1321 191.719 37.6467 191.719 38.6748C191.719 38.8299 191.641 39.13 191.491 39.5851C190.963 41.155 190.704 42.9303 190.704 44.905C190.704 47.2119 191.095 48.5955 191.878 49.0507C192.133 49.2008 192.265 49.387 192.265 49.6095C192.265 49.9288 192.037 50.2339 191.582 50.5158C191.132 50.8018 190.699 50.9438 190.29 50.9438C189.589 50.9438 189.047 50.4474 188.67 49.4555C188.292 48.4636 188.105 47.1344 188.105 45.4648ZM154.946 49.5008C154.842 50.4202 154.331 50.8753 153.417 50.8753C152.252 50.8753 151.67 50.0375 151.67 48.3539C151.67 45.6371 151.815 43.3119 152.107 41.3826C152.338 39.8811 152.457 38.407 152.457 36.9599C152.457 36.6095 152.566 36.3174 152.789 36.0859C153.012 35.8492 153.321 35.7304 153.722 35.7304C155.055 35.7304 155.72 36.541 155.72 38.1562C155.72 38.6798 155.487 40.0171 155.014 42.17C154.732 43.4489 154.587 44.3773 154.587 44.9553C157.13 39.3756 159.423 36.5863 161.466 36.5863C162.295 36.5863 162.959 36.9136 163.46 37.5692C163.961 38.2287 164.225 39.6858 164.238 41.9424C164.247 44.0037 164.356 45.0369 164.561 45.0369C164.72 45.0369 165.276 44.0359 166.226 42.0381C167.283 39.8217 168.188 38.3606 168.938 37.6517C169.689 36.9418 170.481 36.5863 171.305 36.5863C172.292 36.5863 173.006 37.0093 173.452 37.8561C173.895 38.707 174.208 40.1399 174.386 42.1559C174.518 43.758 174.7 44.9643 174.927 45.783C175.15 46.6018 175.542 47.1435 176.092 47.4073C176.538 47.6218 176.756 47.944 176.756 48.368C176.756 48.7496 176.507 49.1362 175.996 49.524C175.492 49.9106 174.977 50.1009 174.453 50.1009C173.544 50.1009 172.838 49.6559 172.325 48.7637C171.814 47.8715 171.469 46.0741 171.291 43.3844C171.196 42.0885 171.091 41.2275 170.977 40.8045C170.869 40.3816 170.699 40.1721 170.481 40.1721C170.285 40.1721 169.999 40.4863 169.626 41.1238C169.252 41.7602 168.607 43.0249 167.692 44.918C166.886 46.6249 166.19 47.8121 165.608 48.4908C165.025 49.1645 164.402 49.5008 163.733 49.5008C163.219 49.5008 162.7 49.2823 162.181 48.8362C161.663 48.3901 161.38 46.78 161.335 43.9946C161.289 41.5195 161.13 40.2769 160.852 40.2769C160.48 40.2769 159.582 41.3785 158.162 43.5848C156.739 45.7871 155.669 47.7628 154.946 49.5008ZM147.652 44.905C147.679 46.93 148.002 48.1907 148.611 48.6912C148.971 48.9913 149.149 49.2783 149.149 49.5421C149.149 49.8654 148.922 50.1654 148.466 50.4474C148.015 50.7344 147.583 50.8753 147.173 50.8753C146.373 50.8753 145.759 50.393 145.327 49.4283C144.894 48.4636 144.68 47.066 144.68 45.2373V44.3038C144.68 44.2675 144.48 44.2495 144.08 44.2495C143.137 44.2495 142.059 44.3269 140.839 44.482C139.624 44.6411 139.015 44.8184 139.015 45.0228C139.015 45.3329 138.923 45.8103 138.737 46.4517C138.637 46.7618 138.587 47.084 138.587 47.4214L138.641 48.5401C138.641 49.1554 138.487 49.683 138.173 50.1292C137.864 50.5742 137.413 50.7978 136.831 50.7978C135.788 50.7978 135.27 50.2107 135.27 49.0366L135.324 47.9168C135.324 47.6489 135.415 46.9572 135.602 45.8374C135.852 44.3542 136.043 42.4479 136.175 40.1178L136.389 37.2369C136.407 36.9549 136.607 36.6548 136.994 36.3457C137.382 36.0315 137.808 35.8764 138.282 35.8764C139.242 35.8764 139.72 36.2359 139.72 36.9599C139.72 36.969 139.707 37.0687 139.684 37.264C139.283 39.7533 139.083 41.3413 139.083 42.0381C139.083 42.0925 139.087 42.1197 139.096 42.1287C139.165 42.1831 140.371 42.0975 142.709 41.879C143.88 41.7602 144.571 41.6695 144.776 41.596C144.89 41.5598 145.007 40.7733 145.135 39.2397C145.249 37.8148 145.481 36.8642 145.836 36.3769C146.187 35.8945 146.664 35.6489 147.269 35.6489C147.852 35.6489 148.284 35.7858 148.562 36.0587C148.835 36.3265 148.94 36.691 148.867 37.1462L148.64 38.1431C148.602 38.3113 148.535 38.5841 148.425 38.9568C147.901 40.7451 147.643 42.4338 147.643 44.0218L147.652 44.905ZM127.761 38.4794C126.865 38.4794 125.695 39.4713 124.262 41.4551C122.828 43.4439 122.109 45.1275 122.109 46.5161C122.109 47.2442 122.26 47.6077 122.564 47.6077C123.611 47.6077 124.903 46.6792 126.437 44.8184C127.97 42.9525 128.735 41.3282 128.735 39.9315C128.735 39.4854 128.635 39.135 128.435 38.8712C128.234 38.6063 128.012 38.4794 127.761 38.4794ZM128.48 45.9009C126.164 48.9681 123.929 50.5017 121.791 50.5017C120.99 50.5017 120.298 50.1876 119.725 49.5552C119.147 48.9228 118.855 48.1222 118.855 47.1434C118.855 44.7861 119.906 42.2788 122.005 39.6173C124.098 36.9549 126.214 35.6267 128.348 35.6267C129.432 35.6267 130.145 36.1725 130.482 37.264C131.502 37.264 132.015 37.6557 132.015 38.4382C132.015 38.8118 131.916 39.4854 131.72 40.4632C131.365 42.2929 131.188 43.758 131.188 44.8506C131.188 45.9874 131.265 46.789 131.419 47.2482C131.579 47.7124 131.688 48.0125 131.761 48.1585C131.834 48.2995 132.048 48.4495 132.402 48.6086C132.757 48.7768 132.935 49.0134 132.935 49.3145C132.935 49.7697 132.707 50.1473 132.248 50.4474C131.788 50.7525 131.31 50.9025 130.814 50.9025C129.977 50.9025 129.376 50.4836 129.008 49.6508C128.639 48.814 128.457 47.8353 128.457 46.7155V46.3158C128.457 46.1839 128.462 46.0469 128.48 45.9009ZM99.7801 48.3176L110.151 47.4486C109.891 46.4023 109.555 45.2685 109.136 44.0581C108.717 42.8437 108.435 41.9696 108.285 41.4369C107.725 39.4391 107.32 37.7554 107.07 36.395L106.683 34.5291C106.551 34.8342 105.801 36.3729 104.439 39.1531C103.075 41.9283 102.092 43.8668 101.487 44.9684C100.358 47.0075 99.7841 48.1081 99.7659 48.2763L99.7801 48.3176ZM99.3934 42.4882V42.5023C99.4891 42.315 99.5888 42.1428 99.6844 41.9837C100.012 41.4329 101.195 38.994 103.229 34.666C104.181 32.6279 104.759 31.4447 104.959 31.1034C105.158 30.766 105.491 30.471 105.951 30.2202C106.415 29.9655 106.874 29.8285 107.338 29.8104C108.271 29.8104 108.867 30.0108 109.132 30.4116C109.391 30.8113 109.705 32.0358 110.068 34.079C110.205 34.8523 110.342 35.5038 110.483 36.0355C110.601 36.4997 110.665 36.7958 110.683 36.9327C111.184 39.2165 111.766 41.3554 112.444 43.3572C113.117 45.3551 113.641 46.5927 114.005 47.0619C114.259 47.0256 114.56 47.0115 114.897 47.0115C115.529 47.0115 115.952 47.1073 116.171 47.3026C116.389 47.4989 116.494 47.8896 116.494 48.4767C116.494 49.7465 116.403 51.6215 116.217 54.1017C116.143 54.9747 116.112 55.448 116.112 55.5306C116.112 55.8669 115.943 56.1942 115.616 56.5083C115.289 56.8225 114.865 56.9816 114.351 56.9816C114.127 56.9816 113.9 56.9091 113.663 56.7631C113.427 56.613 113.258 56.4772 113.159 56.3492C113.054 56.2173 113.004 55.9717 113.004 55.6071C113.004 55.2526 113.063 54.5337 113.177 53.4501C113.277 52.4543 113.323 51.8219 113.323 51.5581C113.323 50.543 113.227 50.0375 113.031 50.0375C111.289 50.0375 106.26 50.4152 97.9504 51.1704C97.1448 51.2297 96.7219 51.3214 96.6856 51.4352C96.2758 52.6547 96.0664 53.8378 96.0573 54.9838V55.6756C96.0573 56.7772 95.5347 57.3864 94.4874 57.5002L94.3515 57.5143C93.9326 57.5597 93.5872 57.4599 93.3133 57.2142C93.0363 56.9726 92.8994 56.604 92.8994 56.1176C92.8994 55.5709 93.0454 54.1601 93.3415 51.8763C93.3908 51.4392 93.427 51.0385 93.4462 50.6749C93.4643 50.1332 93.5731 49.6962 93.7775 49.3639C93.9829 49.0275 94.4018 48.809 95.0342 48.7043C95.5025 48.5864 95.9032 48.2763 96.2305 47.7719C96.312 47.6439 96.3946 47.5211 96.4852 47.3983C96.9494 46.6843 97.9141 45.0499 99.3934 42.4882Z" fill="#818281"/>
<path fill-rule="evenodd" clip-rule="evenodd" d="M150.077 11.7029L150.091 11.6888C149.54 13.9002 149.267 15.9483 149.267 17.8234C149.267 19.7345 149.585 20.9762 150.227 21.5542C150.582 21.8824 150.759 22.1875 150.759 22.4604C150.759 22.7837 150.532 23.0837 150.077 23.3657C149.626 23.6527 149.193 23.7937 148.785 23.7937C147.255 23.7937 146.427 22.1875 146.29 18.9702C144.179 21.964 142.168 23.4614 140.266 23.4614C139.447 23.4614 138.755 23.1291 138.181 22.4604C137.608 21.7958 137.321 20.7627 137.321 19.37C137.321 18.8333 137.366 18.36 137.467 17.9411C137.467 17.914 137.462 17.8868 137.453 17.8596C136.607 19.3881 135.606 20.6257 134.445 21.5723C133.285 22.5189 132.257 22.9922 131.36 22.9922C130.864 22.9922 130.377 22.8331 129.909 22.5058C129.436 22.1825 129.071 21.7545 128.816 21.2269C128.557 20.6992 128.43 19.9662 128.43 19.0337C128.43 18.2332 128.502 17.3138 128.653 16.2756L128.762 15.3935C128.807 15.0108 128.861 14.6372 128.935 14.2737C129.271 12.4078 129.399 11.2156 129.322 10.6879C129.417 10.3516 129.631 10.0505 129.954 9.79167C130.277 9.52786 130.637 9.39595 131.028 9.39595C131.56 9.39595 131.974 9.5822 132.266 9.95483C132.561 10.3284 132.707 10.6929 132.707 11.0474C132.707 11.9758 132.525 13.018 132.161 14.1831C131.697 15.6754 131.47 17.0409 131.47 18.2734C131.47 19.4113 131.583 19.9803 131.815 19.9803C132.853 19.9803 134.077 18.8837 135.478 16.6905C136.884 14.4922 137.881 12.5941 138.468 10.997C138.9 9.85109 139.492 9.2771 140.238 9.2771H140.32C140.807 9.2771 141.194 9.43621 141.481 9.75546C141.763 10.0777 141.904 10.4331 141.904 10.8248C141.904 11.3928 141.685 12.29 141.239 13.5134C140.538 15.3885 140.188 17.1355 140.188 18.7558C140.188 19.9027 140.343 20.4757 140.652 20.4757C141.344 20.4757 142.381 19.7295 143.765 18.2372C145.148 16.7398 145.976 15.3703 146.254 14.1146C146.359 13.6273 146.572 12.8358 146.901 11.7342C147.224 10.6376 147.528 9.92763 147.811 9.60439C148.097 9.2771 148.484 9.11799 148.971 9.11799C149.885 9.11799 150.345 9.63256 150.345 10.6607C150.345 10.8057 150.254 11.1521 150.077 11.7029ZM121.067 11.3978C120.17 11.3978 119 12.3897 117.567 14.3734C116.133 16.3622 115.414 18.0459 115.414 19.4345C115.414 20.1625 115.565 20.526 115.87 20.526C116.917 20.526 118.209 19.5976 119.742 17.7367C121.276 15.8708 122.04 14.2465 122.04 12.8499C122.04 12.4038 121.941 12.0534 121.74 11.7895C121.54 11.5247 121.317 11.3978 121.067 11.3978ZM121.785 18.8192C119.469 21.8865 117.235 23.4201 115.096 23.4201C114.296 23.4201 113.604 23.1059 113.031 22.4735C112.453 21.8412 112.161 21.0406 112.161 20.0618C112.161 17.7045 113.212 15.1971 115.311 12.5357C117.403 9.87321 119.52 8.54503 121.654 8.54503C122.737 8.54503 123.451 9.09086 123.787 10.1824C124.807 10.1824 125.321 10.5741 125.321 11.3565C125.321 11.7301 125.221 12.4038 125.026 13.3815C124.67 15.2112 124.493 16.6764 124.493 17.7689C124.493 18.9058 124.571 19.7074 124.725 20.1666C124.885 20.6308 124.994 20.9309 125.066 21.0769C125.14 21.2178 125.353 21.3679 125.708 21.527C126.063 21.6952 126.24 21.9318 126.24 22.2329C126.24 22.688 126.013 23.0657 125.554 23.3657C125.093 23.6709 124.616 23.8209 124.12 23.8209C123.283 23.8209 122.682 23.402 122.313 22.5692C121.945 21.7324 121.762 20.7536 121.762 19.6339V19.2341C121.762 19.1022 121.767 18.9652 121.785 18.8192ZM106.428 6.95606V6.88859C106.428 6.67006 106.205 6.40117 105.764 6.09208C105.317 5.77785 104.822 5.62279 104.271 5.62279C102.651 5.62279 101.2 5.80505 99.912 6.16958C99.5384 6.26926 99.2978 6.36496 99.188 6.46465C99.0833 6.56028 98.7973 7.52998 98.337 9.36772C97.8728 11.2115 97.5003 13.1772 97.2173 15.2746L97.1085 16.0077C96.6856 18.5877 96.4711 20.3307 96.4711 21.2501C96.4711 21.9408 96.2848 22.4695 95.9112 22.829C95.5387 23.1885 95.0382 23.3657 94.4149 23.3657C93.9729 23.3657 93.6093 23.1522 93.3223 22.7152C93.0404 22.2782 92.8994 21.7505 92.8994 21.1272C92.8994 20.9218 92.986 20.4304 93.1632 19.648C93.4503 18.4467 93.9054 16.3119 94.5378 13.2366C95.1702 10.1602 95.4843 8.58536 95.4843 8.51686C95.4843 8.05362 95.3615 7.821 95.1107 7.821C94.7009 7.821 94.3464 7.68909 94.0503 7.41621C93.7543 7.14333 93.6043 6.83316 93.6043 6.47372C93.6043 5.49996 94.8831 4.64903 97.4449 3.92102C100.003 3.19801 102.569 2.8385 105.136 2.8385C106.255 2.8385 107.348 3.23827 108.408 4.03478C109.472 4.83638 110 5.73257 110 6.72845C110 7.30643 109.654 8.10803 108.954 9.13613C108.258 10.1643 107.357 11.1611 106.255 12.1309C108.753 12.6626 110 14.3422 110 17.1678C110 18.3782 108.999 19.8524 106.988 21.5955C104.981 23.3386 102.656 24.2075 100.017 24.2075C99.3249 24.2075 98.76 24.0978 98.328 23.8752C97.9 23.6527 97.6815 23.3516 97.6815 22.979C97.6815 22.688 97.7913 22.3739 98.0047 22.0325C98.2142 21.6952 98.469 21.4494 98.756 21.2954C99.047 21.1403 99.5072 21.0406 100.135 20.9953C102.165 20.8624 103.711 20.3307 104.79 19.4063C105.864 18.4829 106.401 17.7226 106.401 17.1265C106.401 16.4992 106.15 15.8577 105.65 15.2062C105.145 14.5607 104.549 14.2375 103.857 14.2375C103.784 14.2375 103.634 14.2777 103.402 14.3694C102.16 14.8467 101.413 15.0884 101.163 15.0884C100.285 15.0884 99.7066 14.9565 99.4297 14.6967C99.1517 14.4329 99.0148 14.0371 99.0148 13.5004C99.0148 13.1177 99.4206 12.7452 100.23 12.3806C101.422 11.857 102.383 11.3706 103.111 10.9245C103.839 10.4744 104.512 9.88737 105.136 9.16333C105.76 8.44033 106.186 7.70324 106.428 6.95606Z" fill="#818281"/>
<path fill-rule="evenodd" clip-rule="evenodd" d="M0 63.7646H250V65.987H0V63.7646Z" fill="#409300"/>
<path fill-rule="evenodd" clip-rule="evenodd" d="M11.8911 77.0311C11.5937 77.8938 11.1152 78.5791 10.4555 79.0866C9.77381 79.6159 8.98705 79.8806 8.09539 79.8806C6.94246 79.8806 5.96369 79.4854 5.15886 78.6949C4.35397 77.9047 3.95166 76.9331 3.95166 75.7803C3.95166 74.6492 4.34854 73.694 5.14251 72.9145C5.93648 72.1351 6.89884 71.7454 8.03013 71.7454C8.96548 71.7454 9.7756 72.0009 10.4609 72.5121C11.146 73.0233 11.6192 73.7285 11.8802 74.6274H9.97676C9.54188 73.7719 8.8928 73.3441 8.03013 73.3441C7.36291 73.3441 6.8155 73.5797 6.38784 74.051C5.96004 74.5222 5.74619 75.0952 5.74619 75.7693C5.74619 76.4366 5.96369 77.0202 6.39857 77.5205C6.83364 78.0208 7.38104 78.2708 8.04105 78.2708C8.91835 78.2708 9.56353 77.8576 9.97676 77.0311H11.8911ZM31.1846 73.4745H29.6292V79.7283H27.8565V73.4745H26.3123V71.8975H31.1846V73.4745ZM49.717 79.8806C48.5785 79.8806 47.6107 79.4854 46.813 78.6949C46.0156 77.9047 45.6167 76.9403 45.6167 75.8021C45.6167 74.6636 46.0156 73.703 46.813 72.9199C47.6107 72.1369 48.5785 71.7454 49.717 71.7454C50.8697 71.7454 51.8395 72.1332 52.6262 72.909C53.413 73.6848 53.8062 74.6492 53.8062 75.8021C53.8062 76.9478 53.413 77.9139 52.6262 78.7004C51.8395 79.4872 50.8697 79.8806 49.717 79.8806ZM49.717 73.355C49.0644 73.355 48.517 73.5978 48.0745 74.0837C47.6323 74.5693 47.4112 75.1423 47.4112 75.8021C47.4112 76.4618 47.6323 77.0383 48.0745 77.5314C48.517 78.0243 49.0644 78.2708 49.717 78.2708C50.384 78.2708 50.9386 78.0208 51.3809 77.5205C51.8015 77.042 52.0116 76.4655 52.0116 75.7912C52.0116 75.1168 51.796 74.5423 51.3645 74.0674C50.9332 73.5924 50.384 73.355 49.717 73.355ZM77.0043 79.7283H75.3728V75.3018C75.3728 75.1351 75.3783 74.8812 75.3892 74.5406C75.4 74.1997 75.4055 73.9423 75.4055 73.7682L75.3946 73.7791L73.5021 79.7283H72.3058L70.4242 73.7357L70.4135 73.7466C70.4135 73.9205 70.419 74.1743 70.4316 74.5079C70.4552 74.863 70.4678 75.1205 70.4678 75.28V79.7283H68.7928V71.8975H71.1748L72.9149 77.3248L74.6441 71.8975H77.0043V79.7283ZM99.3215 79.7283H97.3747L96.8743 78.3144H94.0683L93.5462 79.7283H91.6321L94.7534 71.8975H96.2109L99.3215 79.7283ZM96.385 76.857L95.493 74.051L94.5795 76.857H96.385ZM118.267 73.4745H116.712V79.7283H114.939V73.4745H113.395V71.8975H118.267V73.4745ZM136.799 79.8806C135.661 79.8806 134.693 79.4854 133.895 78.6949C133.098 77.9047 132.699 76.9403 132.699 75.8021C132.699 74.6636 133.098 73.703 133.895 72.9199C134.693 72.1369 135.661 71.7454 136.799 71.7454C137.952 71.7454 138.922 72.1332 139.709 72.909C140.495 73.6848 140.889 74.6492 140.889 75.8021C140.889 76.9478 140.495 77.9139 139.709 78.7004C138.922 79.4872 137.952 79.8806 136.799 79.8806ZM136.799 73.355C136.147 73.355 135.599 73.5978 135.157 74.0837C134.715 74.5693 134.494 75.1423 134.494 75.8021C134.494 76.4618 134.715 77.0383 135.157 77.5314C135.599 78.0243 136.147 78.2708 136.799 78.2708C137.466 78.2708 138.021 78.0208 138.463 77.5205C138.884 77.042 139.094 76.4655 139.094 75.7912C139.094 75.1168 138.878 74.5423 138.447 74.0674C138.016 73.5924 137.466 73.355 136.799 73.355ZM162.357 79.7283H160.519L158.79 73.9967L157.05 79.7283H155.212L157.779 71.8975H159.791L162.357 79.7283ZM180.781 79.8806C179.642 79.8806 178.675 79.4854 177.877 78.6949C177.079 77.9047 176.681 76.9403 176.681 75.8021C176.681 74.6636 177.079 73.703 177.877 72.9199C178.675 72.1369 179.642 71.7454 180.781 71.7454C181.934 71.7454 182.903 72.1332 183.69 72.909C184.477 73.6848 184.87 74.6492 184.87 75.8021C184.87 76.9478 184.477 77.9139 183.69 78.7004C182.903 79.4872 181.934 79.8806 180.781 79.8806ZM180.781 73.355C180.128 73.355 179.581 73.5978 179.138 74.0837C178.696 74.5693 178.475 75.1423 178.475 75.8021C178.475 76.4618 178.696 77.0383 179.138 77.5314C179.581 78.0243 180.128 78.2708 180.781 78.2708C181.448 78.2708 182.003 78.0208 182.445 77.5205C182.865 77.042 183.076 76.4655 183.076 75.7912C183.076 75.1168 182.86 74.5423 182.428 74.0674C181.997 73.5924 181.448 73.355 180.781 73.355ZM203.99 73.4745H201.64V79.7283H199.868V71.8975H203.99V73.4745ZM225.274 79.7283H223.533V74.8885L220.227 79.7283H218.737V71.8975H220.51V76.6938L223.813 71.8975H225.274V79.7283ZM246.035 79.7283H244.263V76.944L242.299 79.7283H240.228L242.37 76.9765C241.768 76.8897 241.286 76.6176 240.924 76.161C240.561 75.7041 240.38 75.164 240.38 74.5406C240.38 73.7067 240.645 73.0541 241.174 72.5828C241.681 72.126 242.356 71.8975 243.197 71.8975H246.035V79.7283ZM244.317 75.8239V73.4745H243.512C242.57 73.4745 242.098 73.8625 242.098 74.6383C242.098 75.4286 242.57 75.8239 243.512 75.8239H244.317Z" fill="#818281"/>
</svg>
