<svg width="50" height="50" viewBox="0 0 50 50" fill="none" xmlns="http://www.w3.org/2000/svg">
<g clip-path="url(#clip0_61_133)">
<path d="M25 50C38.8071 50 50 38.8071 50 25C50 11.1929 38.8071 0 25 0C11.1929 0 0 11.1929 0 25C0 38.8071 11.1929 50 25 50Z" fill="white" fill-opacity="0.15"/>
<path fill-rule="evenodd" clip-rule="evenodd" d="M27.2581 13.4004L21.9355 18.723V35.793L27.2581 30.4704V13.4004ZM16.2226 15.6725C16.0365 15.4866 15.7995 15.3601 15.5416 15.3088C15.2836 15.2576 15.0162 15.2839 14.7732 15.3845C14.5302 15.4852 14.3225 15.6555 14.1763 15.8741C14.03 16.0927 13.9519 16.3498 13.9517 16.6128V29.9192C13.9517 30.2718 14.0925 30.6101 14.342 30.8595L19.2742 35.793V18.723L16.2226 15.6725ZM34.8517 18.3338L29.9194 13.4004V30.4704L32.971 33.5208C33.1571 33.7067 33.394 33.8333 33.6521 33.8845C33.9099 33.9357 34.1775 33.9095 34.4204 33.8087C34.6634 33.7081 34.8712 33.5377 35.0174 33.3192C35.1636 33.1006 35.2418 32.8436 35.242 32.5805V19.2741C35.2416 18.9213 35.1013 18.5831 34.8517 18.3338Z" fill="#F6F6F6"/>
</g>
<defs>
<clipPath id="clip0_61_133">
<rect width="50" height="50" fill="white"/>
</clipPath>
</defs>
</svg>
