<svg width="39" height="39" viewBox="0 0 39 39" fill="none" xmlns="http://www.w3.org/2000/svg">
<circle cx="19.5" cy="19.5" r="19.5" fill="#27A6E5"/>
<path d="M27.01 23.38C25.78 23.38 24.59 23.18 23.48 22.82C23.13 22.7 22.74 22.79 22.47 23.06C21.5508 24.2134 19.9355 24.6045 18.7392 23.7419C17.4608 22.8201 16.2876 21.6713 15.3368 20.386C14.4394 19.1729 14.8111 17.5181 15.96 16.54C16.23 16.26 16.31 15.87 16.2 15.52C15.83 14.41 15.64 13.22 15.64 11.99C15.64 11.45 15.19 11 14.65 11H11.19C10.65 11 10 11.24 10 11.99C10 21.28 17.73 29 27.01 29C27.72 29 28 28.37 28 27.82V24.37C28 23.83 27.55 23.38 27.01 23.38Z" fill="white"/>
</svg>
