<svg width="50" height="50" viewBox="0 0 50 50" fill="none" xmlns="http://www.w3.org/2000/svg">
<g clip-path="url(#clip0_56_62)">
<path d="M25 50C38.8071 50 50 38.8071 50 25C50 11.1929 38.8071 0 25 0C11.1929 0 0 11.1929 0 25C0 38.8071 11.1929 50 25 50Z" fill="white" fill-opacity="0.15"/>
<g clip-path="url(#clip1_56_62)">
<path d="M35.4107 30.9011L32.387 27.8775C31.3071 26.7976 29.4713 27.2296 29.0394 28.6334C28.7154 29.6053 27.6356 30.1453 26.6637 29.9293C24.5039 29.3893 21.5883 26.5817 21.0483 24.3139C20.7244 23.342 21.3723 22.2621 22.3442 21.9382C23.748 21.5062 24.18 19.6705 23.1001 18.5906L20.0764 15.5669C19.2125 14.811 17.9167 14.811 17.1608 15.5669L15.109 17.6187C13.0573 19.7784 15.325 25.5018 20.4004 30.5772C25.4758 35.6526 31.1991 38.0284 33.3589 35.8686L35.4107 33.8168C36.1666 32.9529 36.1666 31.6571 35.4107 30.9011Z" fill="#F6F6F6"/>
</g>
</g>
<defs>
<clipPath id="clip0_56_62">
<rect width="50" height="50" fill="white"/>
</clipPath>
<clipPath id="clip1_56_62">
<rect width="21.6667" height="21.6667" fill="white" transform="translate(14.3335 15)"/>
</clipPath>
</defs>
</svg>
