<svg width="95" height="15" viewBox="0 0 95 15" fill="none" xmlns="http://www.w3.org/2000/svg">
<g clip-path="url(#clip0_43_132)">
<path d="M94.8688 6.16855L91.5188 9.5998L92.3063 14.4561C92.3756 14.8436 91.955 15.1273 91.6188 14.9436L87.5 12.6623V0.0185547C87.675 0.0185547 87.85 0.0998047 87.925 0.268555L89.9938 4.6748L94.6 5.3748C94.985 5.44355 95.1269 5.89668 94.8688 6.16855Z" fill="#E0E0E0"/>
<path d="M87.4999 0.0185547V12.6623L83.3812 14.9436C83.0505 15.1292 82.6237 14.8479 82.6937 14.4561L83.4812 9.5998L80.1312 6.16855C79.873 5.89668 80.0143 5.44355 80.3999 5.3748L85.0062 4.6748L87.0749 0.268555C87.1499 0.0998047 87.3249 0.0185547 87.4999 0.0185547Z" fill="#FFC107"/>
</g>
<g clip-path="url(#clip1_43_132)">
<path d="M14.8688 6.16855L11.5188 9.5998L12.3063 14.4561C12.3756 14.8436 11.955 15.1273 11.6188 14.9436L7.5 12.6623V0.0185547C7.675 0.0185547 7.85 0.0998047 7.925 0.268555L9.99375 4.6748L14.6 5.3748C14.985 5.44355 15.1269 5.89668 14.8688 6.16855Z" fill="#FFC107"/>
<path d="M7.49991 0.0185547V12.6623L3.38116 14.9436C3.05054 15.1292 2.62366 14.8479 2.69366 14.4561L3.48116 9.5998L0.131164 6.16855C-0.126961 5.89668 0.0142887 5.44355 0.399914 5.3748L5.00616 4.6748L7.07491 0.268555C7.14991 0.0998047 7.32491 0.0185547 7.49991 0.0185547Z" fill="#FFC107"/>
</g>
<g clip-path="url(#clip2_43_132)">
<path d="M34.8688 6.16855L31.5188 9.5998L32.3063 14.4561C32.3756 14.8436 31.955 15.1273 31.6188 14.9436L27.5 12.6623V0.0185547C27.675 0.0185547 27.85 0.0998047 27.925 0.268555L29.9938 4.6748L34.6 5.3748C34.985 5.44355 35.1269 5.89668 34.8688 6.16855Z" fill="#FFC107"/>
<path d="M27.4999 0.0185547V12.6623L23.3812 14.9436C23.0505 15.1292 22.6237 14.8479 22.6937 14.4561L23.4812 9.5998L20.1312 6.16855C19.873 5.89668 20.0143 5.44355 20.3999 5.3748L25.0062 4.6748L27.0749 0.268555C27.1499 0.0998047 27.3249 0.0185547 27.4999 0.0185547Z" fill="#FFC107"/>
</g>
<g clip-path="url(#clip3_43_132)">
<path d="M54.8688 6.16855L51.5188 9.5998L52.3063 14.4561C52.3756 14.8436 51.955 15.1273 51.6188 14.9436L47.5 12.6623V0.0185547C47.675 0.0185547 47.85 0.0998047 47.925 0.268555L49.9938 4.6748L54.6 5.3748C54.985 5.44355 55.1269 5.89668 54.8688 6.16855Z" fill="#FFC107"/>
<path d="M47.4999 0.0185547V12.6623L43.3812 14.9436C43.0505 15.1292 42.6237 14.8479 42.6937 14.4561L43.4812 9.5998L40.1312 6.16855C39.873 5.89668 40.0143 5.44355 40.3999 5.3748L45.0062 4.6748L47.0749 0.268555C47.1499 0.0998047 47.3249 0.0185547 47.4999 0.0185547Z" fill="#FFC107"/>
</g>
<g clip-path="url(#clip4_43_132)">
<path d="M74.8688 6.16855L71.5188 9.5998L72.3063 14.4561C72.3756 14.8436 71.955 15.1273 71.6188 14.9436L67.5 12.6623V0.0185547C67.675 0.0185547 67.85 0.0998047 67.925 0.268555L69.9938 4.6748L74.6 5.3748C74.985 5.44355 75.1269 5.89668 74.8688 6.16855Z" fill="#FFC107"/>
<path d="M67.4999 0.0185547V12.6623L63.3812 14.9436C63.0505 15.1292 62.6237 14.8479 62.6937 14.4561L63.4812 9.5998L60.1312 6.16855C59.873 5.89668 60.0143 5.44355 60.3999 5.3748L65.0062 4.6748L67.0749 0.268555C67.1499 0.0998047 67.3249 0.0185547 67.4999 0.0185547Z" fill="#FFC107"/>
</g>
<defs>
<clipPath id="clip0_43_132">
<rect width="15" height="15" fill="white" transform="translate(80)"/>
</clipPath>
<clipPath id="clip1_43_132">
<rect width="15" height="15" fill="white"/>
</clipPath>
<clipPath id="clip2_43_132">
<rect width="15" height="15" fill="white" transform="translate(20)"/>
</clipPath>
<clipPath id="clip3_43_132">
<rect width="15" height="15" fill="white" transform="translate(40)"/>
</clipPath>
<clipPath id="clip4_43_132">
<rect width="15" height="15" fill="white" transform="translate(60)"/>
</clipPath>
</defs>
</svg>
