<svg width="130" height="131" viewBox="0 0 130 131" fill="none" xmlns="http://www.w3.org/2000/svg">
<path d="M65.0001 0.756836L87.3852 11.709L110.958 19.7933L119.042 43.3662L129.995 65.7513L119.042 88.1364L110.958 111.709L87.3852 119.794L65.0001 130.746L42.615 119.794L19.0421 111.709L10.9577 88.1364L0.00561523 65.7513L10.9577 43.3662L19.0421 19.7933L42.615 11.709L65.0001 0.756836Z" fill="#27AE60"/>
<path d="M84.3436 17.1564L84.3716 17.1701L84.4011 17.1802L105.563 24.4375L112.82 45.5989L112.83 45.6284L112.844 45.6564L122.675 65.7515L112.844 85.8465L112.83 85.8746L112.82 85.9041L105.563 107.065L84.4011 114.323L84.3716 114.333L84.3436 114.347L64.2486 124.178L44.1535 114.347L44.1255 114.333L44.096 114.323L22.9346 107.065L15.6773 85.9041L15.6672 85.8746L15.6535 85.8465L5.82177 65.7515L15.6535 45.6564L15.6672 45.6284L15.6773 45.5989L22.9346 24.4375L44.096 17.1802L44.1255 17.1701L44.1535 17.1564L64.2486 7.3247L84.3436 17.1564Z" stroke="white"/>
</svg>
