<svg width="15" height="15" viewBox="0 0 15 15" fill="none" xmlns="http://www.w3.org/2000/svg">
<g clip-path="url(#clip0_43_112)">
<path d="M14.8688 6.16855L11.5188 9.5998L12.3063 14.4561C12.3756 14.8436 11.955 15.1273 11.6188 14.9436L7.5 12.6623V0.0185547C7.675 0.0185547 7.85 0.0998047 7.925 0.268555L9.99375 4.6748L14.6 5.3748C14.985 5.44355 15.1269 5.89668 14.8688 6.16855Z" fill="#E0E0E0"/>
<path d="M7.49991 0.0185547V12.6623L3.38116 14.9436C3.05054 15.1292 2.62366 14.8479 2.69366 14.4561L3.48116 9.5998L0.131164 6.16855C-0.126961 5.89668 0.0142887 5.44355 0.399914 5.3748L5.00616 4.6748L7.07491 0.268555C7.14991 0.0998047 7.32491 0.0185547 7.49991 0.0185547Z" fill="#FFC107"/>
</g>
<defs>
<clipPath id="clip0_43_112">
<rect width="15" height="15" fill="white"/>
</clipPath>
</defs>
</svg>
