<svg width="136" height="136" viewBox="0 0 136 136" fill="none" xmlns="http://www.w3.org/2000/svg">
<path d="M68.0001 3.7569L90.3852 14.709L113.958 22.7933L122.042 46.3663L132.995 68.7514L122.042 91.1365L113.958 114.709L90.3852 122.794L68.0001 133.746L45.615 122.794L22.0421 114.709L13.9577 91.1365L3.00562 68.7514L13.9577 46.3663L22.0421 22.7933L45.615 14.709L68.0001 3.7569Z" fill="#9CC57C"/>
<path d="M87.3436 20.1563L87.3716 20.17L87.4011 20.1801L108.563 27.4374L115.82 48.5988L115.83 48.6283L115.844 48.6563L125.675 68.7514L115.844 88.8464L115.83 88.8744L115.82 88.9039L108.563 110.065L87.4011 117.323L87.3716 117.333L87.3436 117.346L67.2486 127.178L47.1535 117.346L47.1255 117.333L47.096 117.323L25.9346 110.065L18.6773 88.9039L18.6672 88.8744L18.6535 88.8464L8.82177 68.7514L18.6535 48.6563L18.6672 48.6283L18.6773 48.5988L25.9346 27.4374L47.096 20.1801L47.1255 20.17L47.1535 20.1563L67.2486 10.3246L87.3436 20.1563Z" stroke="white"/>
</svg>
