<svg width="80" height="80" viewBox="0 0 80 80" fill="none" xmlns="http://www.w3.org/2000/svg">
<path fill-rule="evenodd" clip-rule="evenodd" d="M40.0232 33.3109C40.9948 34.0886 41.7232 34.8123 42.2289 35.4758C43.0566 36.5611 43.1081 37.4915 42.6866 38.0555C42.0747 38.8724 40.4665 38.9208 38.7815 37.556C35.1841 34.6434 30.8062 30.7816 27.0292 30.9329C25.8492 30.9799 24.4849 31.2798 23.5345 32.0357C22.8192 32.6046 22.2552 33.2996 21.8564 34.132C18.8223 40.4587 25.6389 51.6869 30.9966 54.8985C33.7246 56.5338 31.98 60.3613 28.9177 58.525C20.7546 53.6318 11.5424 36.2451 21.0102 28.7175C22.6636 27.4032 24.8015 26.8146 26.8689 26.732C31.2851 26.5554 33.617 28.0057 36.7402 30.7431C38.2333 28.2846 40.0752 25.8625 42.0028 23.9063C47.819 18.0029 56.5351 16.308 60.6032 25.1703C61.6085 27.3605 62.4253 30.0291 62.761 32.419C63.9245 40.7067 60.7595 53.9548 55.0022 60.0285C52.5306 62.6356 49.8507 59.4232 52.0502 57.1027C56.9044 51.9818 59.6721 40.0011 58.6908 33.0159C58.4133 31.038 57.7137 28.7708 56.8811 26.9569C54.1032 20.9042 48.6268 23.1062 44.8985 26.8896C43.1074 28.7077 41.382 31.0128 40.0232 33.3109Z" fill="#409300"/>
<circle cx="40" cy="40" r="39.5" stroke="#409300"/>
</svg>
