<svg width="50" height="50" viewBox="0 0 50 50" fill="none" xmlns="http://www.w3.org/2000/svg">
<g clip-path="url(#clip0_61_150)">
<path d="M25 50C38.8071 50 50 38.8071 50 25C50 11.1929 38.8071 0 25 0C11.1929 0 0 11.1929 0 25C0 38.8071 11.1929 50 25 50Z" fill="white" fill-opacity="0.15"/>
<path d="M25.5272 33.6364C17.669 33.6364 13.1868 28.1422 13 19H16.9363C17.0656 25.7102 19.9675 28.5525 22.2661 29.1385V19H25.9725V24.7871C28.2423 24.5381 30.6271 21.9009 31.4316 19H35.138C34.8349 20.5045 34.2306 21.929 33.3629 23.1844C32.4953 24.4399 31.383 25.4992 30.0956 26.2962C31.5326 27.0244 32.8019 28.0552 33.8197 29.3205C34.8375 30.5857 35.5806 32.0567 36 33.6364H31.92C31.5436 32.2643 30.7784 31.0361 29.7204 30.1057C28.6624 29.1752 27.3586 28.584 25.9725 28.406V33.6364H25.5272Z" fill="white"/>
</g>
<defs>
<clipPath id="clip0_61_150">
<rect width="50" height="50" fill="white"/>
</clipPath>
</defs>
</svg>
