<svg width="50" height="50" viewBox="0 0 50 50" fill="none" xmlns="http://www.w3.org/2000/svg">
<rect width="50" height="50" rx="25" fill="white" fill-opacity="0.15"/>
<path d="M33.4878 16.5C31.23 14.25 28.2195 13 25.0418 13C18.4355 13 13.0836 18.3333 13.0836 24.9167C13.0836 27 13.669 29.0833 14.6725 30.8333L13 37L19.3554 35.3333C21.1115 36.25 23.0348 36.75 25.0418 36.75C31.6481 36.75 37 31.4167 37 24.8333C36.9164 21.75 35.7456 18.75 33.4878 16.5ZM30.8118 29.1667C30.561 29.8333 29.3902 30.5 28.8049 30.5833C28.3031 30.6667 27.6341 30.6667 26.9652 30.5C26.547 30.3333 25.9617 30.1667 25.2927 29.8333C22.2822 28.5833 20.3589 25.5833 20.1916 25.3333C20.0244 25.1667 18.9373 23.75 18.9373 22.25C18.9373 20.75 19.6899 20.0833 19.9408 19.75C20.1916 19.4167 20.5261 19.4167 20.777 19.4167C20.9442 19.4167 21.1951 19.4167 21.3624 19.4167C21.5296 19.4167 21.7805 19.3333 22.0314 19.9167C22.2822 20.5 22.8676 22 22.9512 22.0833C23.0348 22.25 23.0348 22.4167 22.9512 22.5833C22.8676 22.75 22.784 22.9167 22.6167 23.0833C22.4495 23.25 22.2822 23.5 22.1986 23.5833C22.0314 23.75 21.8641 23.9167 22.0314 24.1667C22.1986 24.5 22.784 25.4167 23.7038 26.25C24.8746 27.25 25.7944 27.5833 26.1289 27.75C26.4634 27.9167 26.6307 27.8333 26.7979 27.6667C26.9652 27.5 27.5505 26.8333 27.7178 26.5C27.885 26.1667 28.1359 26.25 28.3868 26.3333C28.6376 26.4167 30.1429 27.1667 30.3937 27.3333C30.7282 27.5 30.8955 27.5833 30.9791 27.6667C31.0627 27.9167 31.0627 28.5 30.8118 29.1667Z" fill="white"/>
</svg>
