<svg width="30" height="30" viewBox="0 0 30 30" fill="none" xmlns="http://www.w3.org/2000/svg">
<g clip-path="url(#clip0_1_483)">
<path d="M30 15C30 6.71573 23.2843 0 15 0C6.71573 0 0 6.71573 0 15C0 23.2843 6.71573 30 15 30C23.2843 30 30 23.2843 30 15Z" fill="#48C95F"/>
<path d="M20.9451 9.04688C19.4634 7.57028 17.4878 6.75 15.4025 6.75C11.0671 6.75 7.5549 10.25 7.5549 14.5703C7.5549 15.9375 7.93905 17.3047 8.59755 18.4531L7.5 22.5L11.6707 21.4063C12.8232 22.0079 14.0854 22.3359 15.4025 22.3359C19.7378 22.3359 23.25 18.8359 23.25 14.5157C23.1951 12.4922 22.4268 10.5234 20.9451 9.04688ZM19.189 17.3594C19.0244 17.7969 18.2561 18.2344 17.872 18.2891C17.5427 18.3437 17.1037 18.3437 16.6646 18.2344C16.3903 18.125 16.0061 18.0156 15.5671 17.7969C13.5915 16.9766 12.3292 15.0078 12.2195 14.8438C12.1097 14.7344 11.3963 13.8047 11.3963 12.8203C11.3963 11.8359 11.8903 11.3984 12.0549 11.1797C12.2195 10.961 12.439 10.9609 12.6037 10.9609C12.7134 10.9609 12.878 10.9609 12.9878 10.9609C13.0976 10.9609 13.2622 10.9063 13.4268 11.2891C13.5915 11.6719 13.9756 12.6563 14.0305 12.7109C14.0854 12.8204 14.0854 12.9297 14.0305 13.0391C13.9756 13.1484 13.9208 13.2578 13.811 13.3672C13.7012 13.4765 13.5914 13.6406 13.5366 13.6953C13.4268 13.8047 13.3171 13.9141 13.4268 14.0781C13.5366 14.2969 13.9208 14.8984 14.5244 15.4453C15.2927 16.1015 15.8963 16.3203 16.1159 16.4297C16.3354 16.5391 16.4451 16.4844 16.5549 16.375C16.6646 16.2656 17.0488 15.8281 17.1585 15.6094C17.2683 15.3906 17.4329 15.4454 17.5975 15.5C17.7622 15.5547 18.75 16.0469 18.9146 16.1563C19.1341 16.2656 19.2439 16.3203 19.2988 16.375C19.3537 16.5391 19.3537 16.9219 19.189 17.3594Z" fill="white"/>
</g>
<defs>
<clipPath id="clip0_1_483">
<rect width="30" height="30" fill="white"/>
</clipPath>
</defs>
</svg>
