<svg width="200" height="33" viewBox="0 0 200 33" fill="none" xmlns="http://www.w3.org/2000/svg">
<path d="M12.7909 0C10.2612 0.00132514 7.78875 0.754247 5.68569 2.16365C3.58262 3.57303 1.94336 5.57568 0.974944 7.91862C0.00652937 10.2616 -0.247605 12.8396 0.244653 15.3275C0.736911 17.8152 1.95348 20.1007 3.74072 21.8954C6.058 24.2186 11.5115 27.5796 11.8341 31.1099C11.8825 31.6373 12.2649 32.0691 12.7909 32.0691C13.3168 32.0691 13.7007 31.6373 13.7476 31.1099C14.0702 27.5796 19.5194 24.2243 21.8355 21.9026C23.6246 20.1086 24.8433 17.8227 25.3372 15.3344C25.831 12.8462 25.5778 10.2668 24.6099 7.92262C23.642 5.57845 22.0025 3.57463 19.8988 2.16447C17.7951 0.754275 15.3214 0.00105409 12.7909 0ZM12.7909 17.2161C12.2162 17.2161 11.6469 17.1026 11.1158 16.8821C10.5847 16.6617 10.1022 16.3382 9.69573 15.9307C9.28926 15.5233 8.96682 15.0396 8.74684 14.5071C8.52686 13.9747 8.41364 13.4039 8.41364 12.8278C8.41364 12.2514 8.52686 11.6807 8.74684 11.1483C8.96682 10.6158 9.28926 10.1321 9.69573 9.72457C10.1022 9.31706 10.5847 8.99379 11.1158 8.77324C11.6469 8.55273 12.2162 8.43919 12.7909 8.43919C13.9519 8.43919 15.0651 8.90157 15.8861 9.72457C16.7071 10.5476 17.1682 11.6638 17.1682 12.8278C17.1682 13.9915 16.7071 15.108 15.8861 15.9307C15.0651 16.7538 13.9519 17.2161 12.7909 17.2161Z" fill="#EB5440"/>
<path d="M97.5778 23.1196V20.3546C96.5258 21.0672 94.7628 21.6945 93.1139 21.6945C90.6401 21.6945 89.7017 20.5257 89.5596 18.1311H97.7198V16.3352C97.7198 11.3467 95.5306 9.46533 92.1469 9.46533C88.0243 9.46533 86.0624 12.6293 86.0624 16.9623C86.0624 21.9511 88.5076 24.374 92.8294 24.374C94.9904 24.374 96.5825 23.8039 97.5778 23.1196ZM118.732 24.374C120.295 24.374 121.405 24.0888 122.229 23.4904V20.725C121.376 21.3238 120.353 21.6945 118.931 21.6945C116.514 21.6945 115.519 19.8131 115.519 16.8484C115.519 13.7413 116.741 12.1448 118.959 12.1448C120.267 12.1448 121.547 12.601 122.229 13.0287V10.1495C121.518 9.75039 120.267 9.46533 118.59 9.46533C114.268 9.46533 112.022 12.5724 112.022 16.9339C112.022 21.7228 114.211 24.374 118.732 24.374ZM66.586 9.75039V15.423H62.065V9.75039H58.6816V24.0888H62.065V18.1028H66.586V24.0888H69.9693V9.75039H66.586ZM85.2378 21.4093H83.731V9.75039H73.8645V10.9761C73.8645 14.4824 73.6371 19.0147 72.4431 21.4093H71.3911V27.367H74.5185V24.0888H82.1101V27.367H85.2378V21.4093ZM108.382 24.0888H112.221L106.79 16.3638L111.567 9.75039H108.155L103.378 16.3638V9.75039H99.9944V24.0888H103.378V17.0478L108.382 24.0888ZM92.0901 12.1448C93.7678 12.1448 94.2794 13.5416 94.2794 15.3374V15.6227H89.5596C89.6449 13.3422 90.4695 12.1448 92.0901 12.1448ZM80.3474 21.4093H75.5708C76.5089 19.243 76.7648 15.3375 76.7648 12.8576V12.43H80.3474V21.4093Z" fill="black" fill-opacity="0.8"/>
<path d="M139.889 24.0879H143.898L136.847 13.6548L143.443 4.27637H140.031L133.634 13.3982V4.27637H130.193V24.0879H133.634V14.7951L139.889 24.0879Z" fill="black" fill-opacity="0.8"/>
<path d="M155.406 14.3114C155.406 10.8337 153.643 9.52246 150.06 9.52246C147.814 9.52246 146.051 10.2351 145.028 10.8337V13.6558C145.938 12.9715 147.928 12.2307 149.662 12.2307C151.283 12.2307 152.022 12.8008 152.022 14.34V15.1381H151.482C146.307 15.1381 144.004 16.8485 144.004 19.7562C144.004 22.6637 145.767 24.2885 148.383 24.2885C150.373 24.2885 151.226 23.6329 151.88 22.9489H152.022C152.051 23.3194 152.164 23.8039 152.278 24.0892H155.576C155.463 22.9203 155.406 21.7515 155.406 20.5827V14.3114ZM152.022 20.6682C151.596 21.2955 150.8 21.8084 149.606 21.8084C148.184 21.8084 147.473 20.9534 147.473 19.6707C147.473 17.9887 148.639 17.39 151.539 17.39H152.022V20.6682Z" fill="black" fill-opacity="0.8"/>
<path d="M161.253 9.75039H158.125V28.2223H161.509V22.4071C162.362 23.6897 163.613 24.374 165.063 24.374C168.361 24.374 170.636 21.7228 170.636 16.9053C170.636 12.1165 168.418 9.46533 165.234 9.46533C163.641 9.46533 162.333 10.2065 161.424 11.6033L161.253 9.75039ZM164.21 21.6945C162.419 21.6945 161.509 20.2405 161.509 16.9339C161.509 13.5988 162.476 12.1448 164.381 12.1448C166.229 12.1448 167.139 13.5988 167.139 16.9053C167.139 20.2405 166.172 21.6945 164.21 21.6945Z" fill="black" fill-opacity="0.8"/>
<path d="M182.53 12.4291V9.74951H171.185V12.4291H175.166V24.0879H178.549V12.4291H182.53Z" fill="black" fill-opacity="0.8"/>
<path d="M184.532 9.74951V24.0879H189.679C193.005 24.0879 195.365 22.3776 195.365 19.0139C195.365 15.8212 193.261 14.1395 189.735 14.1395H187.916V9.74951H184.532ZM196.616 9.74951V24.0879H200V9.74951H196.616ZM189.48 21.4085H187.916V16.819H189.565C191.015 16.819 191.868 17.4746 191.868 19.128C191.868 20.7814 190.93 21.4085 189.48 21.4085Z" fill="black" fill-opacity="0.8"/>
<path d="M55.8381 24.0879H52.3977V6.95592H50.8624C48.0477 6.95592 46.5691 8.38123 46.5691 10.4907C46.5691 12.885 47.5926 13.997 49.6969 15.4221L51.431 16.5909L46.4271 24.0879H42.7021L47.1946 17.389C44.6073 15.5362 43.1572 13.7404 43.1572 10.6902C43.1572 6.87042 45.8013 4.27637 50.8342 4.27637H55.8381V24.0879Z" fill="black" fill-opacity="0.8"/>
</svg>
